<svg xmlns="http://www.w3.org/2000/svg"><symbol id="fb" viewBox="0 0 24 24"><path d="M24 22.692c0 .72-.589 1.308-1.308 1.308h-6.147v-9.286h3.139l.458-3.597h-3.597V8.828c0-1.046.261-1.765 1.766-1.765h1.896v-3.27c-.327-.065-1.439-.13-2.812-.13-2.746 0-4.643 1.7-4.643 4.773v2.681H9.613v3.597h3.139V24H1.308C.588 24 0 23.411 0 22.692V1.308C0 .588.589 0 1.308 0h21.384C23.412 0 24 .589 24 1.308v21.384Z"/></symbol><symbol id="vk" viewBox="0 0 24 14"><path d="M23.87 12.526c0-.066-.066-.13-.066-.13-.393-.72-1.243-1.701-2.42-2.748-.523-.523-.85-.85-.98-1.046-.262-.327-.328-.654-.197-.98.13-.262.458-.785 1.112-1.636.327-.457.588-.784.785-1.046C23.541 3.044 24.195 1.801 24 1.278l-.065-.13c-.066-.197-.197-.262-.393-.328-.196-.065-.458-.065-.785 0H18.9c-.13 0-.13.066-.13.066h-.066l-.065.065c-.066 0-.066.065-.131.13-.066.066-.066.132-.131.197-.392.98-.85 1.962-1.308 2.812-.327.523-.588.98-.85 1.373s-.458.654-.654.85l-.458.458c-.13.13-.261.13-.327.13-.065 0-.13-.064-.196-.064-.13-.066-.196-.197-.261-.327-.066-.131-.131-.262-.131-.458s-.066-.393-.066-.523V1.8c0-.261 0-.458-.065-.588 0-.131-.065-.262-.13-.393-.066-.13-.132-.261-.262-.327l-.393-.196c-.458-.13-.98-.13-1.7-.13-1.57 0-2.55.065-3.008.326C8.37.56 8.24.69 8.109.886c-.13.196-.196.261-.065.327.523.065.85.261 1.046.523l.065.13c.066.131.131.327.197.589.065.262.065.589.13.916a6.279 6.279 0 0 1 0 1.569c-.065.458-.065.785-.13.981-.066.262-.066.458-.197.589l-.13.261c0 .066-.066.066-.066.066-.13.065-.196.065-.327.065-.13 0-.261-.066-.392-.196-.196-.131-.327-.262-.523-.458a3.169 3.169 0 0 1-.589-.85c-.196-.393-.458-.785-.72-1.308l-.195-.392c-.131-.262-.327-.589-.524-1.047-.196-.458-.392-.85-.588-1.308-.066-.13-.196-.261-.327-.392h-.066c-.065-.065-.13-.065-.196-.13-.065 0-.196-.066-.261-.066H.85c-.393 0-.655.13-.786.261v.066C0 1.147 0 1.212 0 1.278c0 .065 0 .196.065.327a54.395 54.395 0 0 0 1.635 3.4c.589 1.112 1.112 1.962 1.504 2.616.458.654.85 1.308 1.308 1.897.458.588.72.98.916 1.111.13.197.261.262.327.393l.327.327c.196.196.523.457.85.72.392.26.785.522 1.308.85a6.105 6.105 0 0 0 1.635.653c.654.196 1.242.262 1.83.196h1.44a1 1 0 0 0 .653-.261l.066-.066c.065-.065.065-.13.065-.261s.066-.196.066-.327c0-.327 0-.654.065-.981.065-.262.13-.523.196-.654.066-.13.196-.262.262-.392.13-.131.196-.131.196-.197.065 0 .065-.065.13-.065.197-.065.459 0 .72.196.262.196.523.458.785.72.261.261.523.588.85.98.327.327.654.654.85.785l.262.131c.196.13.392.196.654.262.261.065.523.13.719.065l3.204-.065c.327 0 .589-.066.72-.131.196-.131.261-.196.327-.327.065-.131.065-.262 0-.458 0 0 0-.13-.066-.196Z"/></symbol><symbol id="inst" viewBox="0 0 24 24"><path d="M21.123 0H2.877C1.307 0 0 1.243 0 2.812v18.376C0 22.758 1.308 24 2.877 24h18.246C22.693 24 24 22.758 24 21.188V2.812C24 1.242 22.692 0 21.123 0Zm-3.859 3.728c0-.393.327-.72.72-.72h2.288c.393 0 .72.327.72.72V5.95c0 .392-.327.72-.72.72H18.05a.726.726 0 0 1-.72-.72l-.065-2.223ZM12.033 7.39c2.55 0 4.643 2.027 4.643 4.577s-2.093 4.578-4.643 4.578-4.643-2.027-4.643-4.578c0-2.485 2.092-4.577 4.643-4.577Zm9.678 13.602c0 .392-.327.72-.72.72H3.009a.726.726 0 0 1-.72-.72V9.744h2.944c-.393.588-.524 1.635-.524 2.289 0 3.989 3.27 7.259 7.325 7.259 4.054 0 7.324-3.27 7.324-7.26 0-.653-.065-1.7-.589-2.288h3.009l-.066 11.248Z"/></symbol><symbol id="twitter" viewBox="0 0 24 21"><path d="M23.346.42c-.98.588-2.027.98-3.139 1.242A4.838 4.838 0 0 0 16.61.092c-2.746 0-4.904 2.29-4.904 5.036 0 .392.065.785.13 1.177C7.716 6.044 4.12 4.016 1.7.943a5.466 5.466 0 0 0-.654 2.55c0 1.766.85 3.27 2.224 4.185-.785 0-1.57-.261-2.224-.653v.13c0 2.42 1.7 4.513 3.924 4.97-.392.131-.85.197-1.308.197-.327 0-.654 0-.915-.066.654 2.027 2.42 3.466 4.577 3.531-1.7 1.374-3.793 2.158-6.147 2.158-.392 0-.785 0-1.177-.065a13.597 13.597 0 0 0 7.52 2.289c9.09 0 13.995-7.717 13.995-14.387v-.654c.98-.72 1.831-1.57 2.485-2.616-.85.393-1.831.654-2.812.785.98-.72 1.766-1.7 2.158-2.877Z"/></symbol><symbol id="phone" viewBox="0 0 24 24"><path d="M23.948 18.596c-.068-.205-.5-.506-1.295-.904a39.775 39.775 0 0 0-.92-.511 85.168 85.168 0 0 1-1.083-.597 36.067 36.067 0 0 1-.912-.528 22.128 22.128 0 0 0-.426-.298 4.786 4.786 0 0 0-.605-.367 1.117 1.117 0 0 0-.486-.12c-.227 0-.51.163-.852.487-.34.324-.653.676-.937 1.057-.284.38-.585.732-.903 1.056-.318.324-.58.486-.784.486a1.16 1.16 0 0 1-.384-.085 3.991 3.991 0 0 1-.35-.144c-.079-.04-.215-.12-.408-.24-.194-.119-.302-.184-.324-.196-1.557-.863-2.892-1.852-4.006-2.965-1.113-1.114-2.102-2.45-2.966-4.006a9.956 9.956 0 0 0-.196-.324 6.125 6.125 0 0 1-.239-.41 3.692 3.692 0 0 1-.144-.349 1.153 1.153 0 0 1-.086-.383c0-.205.162-.466.486-.784.324-.318.677-.62 1.057-.903.38-.284.733-.597 1.057-.938.324-.34.486-.625.486-.852 0-.159-.04-.32-.12-.486a4.738 4.738 0 0 0-.366-.605c-.165-.238-.264-.38-.299-.426-.17-.284-.346-.588-.528-.912-.182-.324-.38-.685-.597-1.082a40.51 40.51 0 0 0-.51-.92C5.91.55 5.607.119 5.403.05A.955.955 0 0 0 5.046 0c-.307 0-.707.057-1.202.17-.494.114-.883.233-1.167.358-.569.239-1.17.932-1.807 2.08C.29 3.676 0 4.733 0 5.778c0 .307.02.605.06.895.04.29.111.616.213.98.103.364.185.634.247.81.063.176.18.49.35.946.17.454.272.732.307.835a15.44 15.44 0 0 0 1.414 2.983c.897 1.454 2.122 2.957 3.673 4.508 1.551 1.551 3.054 2.776 4.509 3.674.875.545 1.87 1.016 2.983 1.414.102.034.38.136.835.307.454.17.77.287.946.35.176.062.446.145.809.247.364.102.69.174.98.214.29.039.588.06.895.06 1.045 0 2.102-.29 3.17-.87 1.148-.637 1.841-1.239 2.08-1.807.125-.284.244-.673.358-1.168.114-.494.17-.894.17-1.201a.951.951 0 0 0-.05-.36Z"/></symbol><symbol id="fit" viewBox="0 0 44 68"><path d="M41.836 60.031h-5.977v-4.25h2.663a1.992 1.992 0 1 0 0-3.984H35.86v-3.984h5.32a1.992 1.992 0 0 0 0-3.985h-5.32v-3.984h2.663a1.992 1.992 0 0 0 0-3.985H35.86v-3.984h5.32a1.992 1.992 0 0 0 0-3.984h-5.32v-3.985h2.663a1.992 1.992 0 1 0 0-3.984H35.86v-3.985h5.32a1.992 1.992 0 0 0 0-3.984h-5.32V7.97h2.663a1.992 1.992 0 0 0 0-3.985H35.86V1.992a1.992 1.992 0 0 0-3.984 0v58.04h-7.193L25.778 42.5h.127c1.1 0 1.992-.892 1.992-1.992V27.223c0-4.422-2.899-8.179-6.896-9.474a5.978 5.978 0 0 0 2.918-5.132 5.983 5.983 0 0 0-5.976-5.976 5.983 5.983 0 0 0-5.977 5.976 5.979 5.979 0 0 0 2.916 5.13c-3.999 1.294-6.9 5.052-6.9 9.476v13.285c0 1.1.892 1.992 1.992 1.992h.12l1.097 17.531H1.992c-1.1 0-1.992.892-1.992 1.992v3.985a1.992 1.992 0 0 0 3.984 0v-1.992h35.86v1.992a1.992 1.992 0 1 0 3.984 0v-3.985c0-1.1-.892-1.992-1.992-1.992ZM17.943 10.625c1.098 0 1.992.894 1.992 1.992a1.994 1.994 0 0 1-1.992 1.992 1.994 1.994 0 0 1-1.992-1.992c0-1.098.893-1.992 1.992-1.992Zm-5.977 16.598a5.98 5.98 0 0 1 5.974-5.973 5.98 5.98 0 0 1 5.973 5.973v11.293H11.966V27.223Zm2.12 15.277h7.7L20.69 60.031h-5.507L14.087 42.5Z"/></symbol><symbol id="strong" viewBox="0 0 64 64"><path d="M33.875 30.181V19.817h4.15c9.893 0 17.942-8.049 17.942-17.942C55.967.84 55.127 0 54.092 0h-6.027C41.037 0 34.94 4.063 32 9.962 29.058 4.062 22.962 0 15.933 0H9.908C8.873 0 8.033.84 8.033 1.875c0 9.893 8.049 17.942 17.942 17.942h4.15V30.18C13.325 31.152 0 45.081 0 62.125 0 63.16.84 64 1.875 64h60.25C63.16 64 64 63.16 64 62.125c0-17.044-13.325-30.973-30.125-31.944ZM48.065 3.75h4.028c-.92 6.942-6.879 12.317-14.068 12.317h-4.027c.92-6.943 6.877-12.317 14.067-12.317Zm-22.09 12.317c-7.19 0-13.148-5.375-14.068-12.317h4.026c7.19 0 13.148 5.375 14.069 12.317h-4.027ZM3.81 60.25c.929-14.33 11.435-22.005 18.282-24.584v4.712c0 .572-.223 1.11-.628 1.515l-6.025 6.025a5.898 5.898 0 0 0 0 8.33l4.001 4.002H3.81Zm20.933 0-6.652-6.653a2.14 2.14 0 0 1 0-3.028l6.025-6.025a5.853 5.853 0 0 0 1.726-4.166v-5.83A28.366 28.366 0 0 1 32 33.876c4.914 0 9.677 1.259 13.906 3.659L35.522 47.918a5.888 5.888 0 0 0 0 8.33l4.001 4.002h-14.78Zm20.084 0-6.653-6.653a2.14 2.14 0 0 1 0-3.028L49.1 39.643A28.253 28.253 0 0 1 60.188 60.25H44.827Z"/></symbol><symbol id="unique" viewBox="0 0 68 68"><path d="M67.58 64.784c-.105-.135-2.63-3.336-7.98-6.493-2.61-1.541-6.209-3.24-10.814-4.482a69.333 69.333 0 0 0 2.564-13.706c.541-6.407.157-12.667-1.142-18.607-1.629-7.443-4.704-14.392-9.14-20.655a1.992 1.992 0 0 0-3.251 0 57.452 57.452 0 0 0-3.787 6.122A57.406 57.406 0 0 0 30.243.84a1.992 1.992 0 0 0-3.251 0c-4.437 6.262-7.512 13.212-9.14 20.655-1.3 5.94-1.684 12.2-1.143 18.607a69.254 69.254 0 0 0 2.646 13.981c-4.245 1.204-7.67 2.76-10.234 4.18C3.467 61.392.623 64.55.504 64.682A1.992 1.992 0 0 0 1.992 68h64.016a1.992 1.992 0 0 0 1.572-3.216ZM20.963 26.958l13.363-9.08a52.198 52.198 0 0 1 1.046 3.84L20.53 31.804c.073-1.56.212-3.18.433-4.846Zm1.01-5.504a52.327 52.327 0 0 1 6.646-15.88 52.556 52.556 0 0 1 4.322 8.428l-10.967 7.452Zm-1.477 15.19L36.18 25.987c.645 4.373.776 8.924.388 13.64a65.613 65.613 0 0 1-2.244 12.389 57.109 57.109 0 0 0-11.085 1.126 65.327 65.327 0 0 1-2.558-13.375 61.201 61.201 0 0 1-.184-3.123Zm14.177 19.353c10.801 0 18.316 3.054 22.718 5.617a33.152 33.152 0 0 1 3.58 2.402H7.435c4.744-3.346 13.779-8.019 27.24-8.019Zm4.771-50.423c6.314 9.995 8.986 21.436 7.947 34.053a65.47 65.47 0 0 1-2.508 13.298 54.31 54.31 0 0 0-6.45-.792 69.732 69.732 0 0 0 2.092-12.03c.541-6.407.157-12.667-1.142-18.607a56.366 56.366 0 0 0-3.169-9.964 52.205 52.205 0 0 1 3.23-5.958Z"/></symbol><symbol id="bord" viewBox="0 0 44 44"><path d="M43.622.378a1.287 1.287 0 0 0-1.028-.373c-.159.015-3.953.376-9.156 2.122C16.504 7.343 5.296 23.763.085 35.642c-.328.784.334 1.834 1.327 1.747l5.756-.56-.56 5.756c-.062.827.742 1.699 1.748 1.327 20.679-9.423 33.292-23.845 35.639-42.506a1.288 1.288 0 0 0-.373-1.028ZM26.96 28.707a76.21 76.21 0 0 1-6.62 5.373V12.134a41.368 41.368 0 0 1 6.62-4.409v20.982Zm-12.578 9.272a64.466 64.466 0 0 1-4.995 2.66l.498-5.12c.074-.665-.542-1.508-1.408-1.407l-5.117.498c1.73-3.668 6.385-12.207 14.403-20.154v21.41a73.758 73.758 0 0 1-3.38 2.113ZM39.405 9.813c-1.514 4.485-4.453 10.961-9.868 16.428v-19.8c3.528-1.703 8.916-3.23 11.657-3.635a46.99 46.99 0 0 1-1.789 7.007Z"/></symbol><symbol id="material" viewBox="0 0 44 44"><path d="M42.71 15.555h-9.224l.003-.024a10.462 10.462 0 0 0 2.555-3.267 1.289 1.289 0 0 0-1.153-1.866H32.9a11.404 11.404 0 0 0-1.882-3.367c.105-1.41-.064-2.791-.504-4.111a1.289 1.289 0 0 0-2.134-.504l-1.41 1.41a11.393 11.393 0 0 0-3.704-1.05c-.973-1.145-2.094-2.052-3.269-2.64a1.29 1.29 0 0 0-1.865 1.153v2.076a11.405 11.405 0 0 0-3.368 1.882 10.459 10.459 0 0 0-4.11.504 1.289 1.289 0 0 0-.505 2.134l1.41 1.41A11.394 11.394 0 0 0 10.51 13a10.503 10.503 0 0 0-2.162 2.554H1.29c-.712 0-1.289.577-1.289 1.289V22c0 .712.577 1.29 1.29 1.29h1.374V42.71c0 .712.577 1.29 1.29 1.29h5.155a1.29 1.29 0 0 0 1.29-1.29v-4.37L22 33.702l11.602 4.64v4.37c0 .712.577 1.289 1.289 1.289h5.156a1.29 1.29 0 0 0 1.289-1.29V23.29h1.375A1.29 1.29 0 0 0 44 22v-5.156a1.29 1.29 0 0 0-1.29-1.29Zm-30.172-.882c.294-.228.476-.572.498-.943a8.877 8.877 0 0 1 1.22-4.018 1.29 1.29 0 0 0-.199-1.566l-.347-.347c.431-.013.868.008 1.308.064a1.29 1.29 0 0 0 1.018-.316 8.892 8.892 0 0 1 3.709-1.982c.569-.147.966-.66.966-1.247v-.51c.307.302.602.635.882.996.228.294.571.475.942.498a8.876 8.876 0 0 1 4.018 1.22 1.29 1.29 0 0 0 1.566-.199l.348-.347c.013.43-.008.868-.064 1.308-.047.369.068.74.315 1.018a8.892 8.892 0 0 1 1.982 3.709c.147.568.66.966 1.248.966h.486c-.296.315-.62.609-.972.882a1.29 1.29 0 0 0-.498.942 9.16 9.16 0 0 1-.077.754h-5.242A3.872 3.872 0 0 0 22 10.399a3.872 3.872 0 0 0-3.645 5.156h-6.789c.296-.315.62-.61.972-.882Zm10.751-.407c0 .71-.578 1.289-1.289 1.289a1.29 1.29 0 0 1-1.29-1.29 1.29 1.29 0 0 1 2.578 0ZM7.82 41.422H5.242V23.289H7.82v18.133Zm2.578-5.857V29.06l8.131 3.253-8.13 3.252Zm23.204 0-8.131-3.252 8.13-3.253v6.505Zm0-9.281L22 30.924l-11.602-4.64v-2.995h23.204v2.994Zm5.156 15.138H36.18V23.289h2.578v18.133Zm2.664-20.711H2.578v-2.578h38.844v2.578Z"/></symbol><symbol id="car" viewBox="0 0 44 31"><path d="M33.231 19.412a5.552 5.552 0 0 0-5.546 5.546 5.552 5.552 0 0 0 5.546 5.546 5.552 5.552 0 0 0 5.546-5.546 5.552 5.552 0 0 0-5.546-5.546Zm0 8.32a2.776 2.776 0 0 1-2.773-2.774 2.776 2.776 0 0 1 2.773-2.773 2.776 2.776 0 0 1 2.773 2.773 2.776 2.776 0 0 1-2.773 2.773ZM14.281 19.412a5.552 5.552 0 0 0-5.546 5.546 5.552 5.552 0 0 0 5.546 5.546 5.552 5.552 0 0 0 5.547-5.546 5.553 5.553 0 0 0-5.546-5.546Zm0 8.32a2.776 2.776 0 0 1-2.773-2.774 2.776 2.776 0 0 1 2.774-2.773 2.776 2.776 0 0 1 2.773 2.773 2.776 2.776 0 0 1-2.774 2.773ZM36.966 3.537a1.387 1.387 0 0 0-1.24-.764h-7.302v2.773h6.448l3.775 7.51 2.479-1.246-4.16-8.273Z"/><path d="M29.072 23.618H18.58v2.773h10.492v-2.773ZM10.122 23.618H5.315a1.386 1.386 0 1 0 0 2.773h4.807a1.386 1.386 0 1 0 0-2.773ZM43.709 15.141 40.98 11.63a1.385 1.385 0 0 0-1.094-.537H29.81V1.387C29.81.62 29.19 0 28.424 0H5.315a1.386 1.386 0 1 0 0 2.773h21.723v9.706c0 .766.62 1.386 1.386 1.386h10.784l2.019 2.602v7.15H37.39a1.386 1.386 0 1 0 0 2.774h5.222c.766 0 1.387-.621 1.387-1.387v-9.012c0-.308-.103-.608-.291-.85ZM10.03 16.593H3.65a1.386 1.386 0 1 0 0 2.773h6.378a1.386 1.386 0 1 0 0-2.773ZM13.219 11.139H1.386a1.387 1.387 0 0 0 0 2.773h11.832a1.386 1.386 0 1 0 0-2.773Z"/><path d="M15.483 5.685H3.651a1.386 1.386 0 1 0 0 2.773h11.832a1.386 1.386 0 1 0 0-2.773Z"/></symbol></svg>