<svg xmlns="http://www.w3.org/2000/svg"><symbol id="logo"><path d="M12.575 18.552c-1.008 0-1.896-.176-2.664-.528-.768-.352-1.36-.84-1.776-1.464-.416-.64-.624-1.376-.624-2.208 0-.704.144-1.344.432-1.92a3.703 3.703 0 0 1 1.2-1.368 3 3 0 0 1 1.68-.504c.56 0 1.032.144 1.416.432.384.272.624.656.72 1.152-.832 0-1.496.224-1.992.672-.496.432-.744 1.024-.744 1.776 0 .688.208 1.24.624 1.656.416.416.968.624 1.656.624.848 0 1.544-.28 2.088-.84.56-.576.84-1.296.84-2.16 0-.752-.208-1.464-.624-2.136-.416-.672-1.04-1.488-1.872-2.448-.864-.992-1.52-1.84-1.968-2.544a4.488 4.488 0 0 1-.648-2.352c0-.832.232-1.576.696-2.232.464-.672 1.104-1.2 1.92-1.584C13.751.192 14.671 0 15.695 0c1.296 0 2.328.304 3.096.912.784.608 1.176 1.424 1.176 2.448 0 .672-.168 1.216-.504 1.632a1.615 1.615 0 0 1-1.32.624c-.608 0-1.096-.248-1.464-.744.304-.224.544-.52.72-.888.176-.368.264-.752.264-1.152 0-.512-.152-.92-.456-1.224-.304-.304-.72-.456-1.248-.456-.64 0-1.168.232-1.584.696-.4.448-.6 1.024-.6 1.728 0 .64.184 1.24.552 1.8.368.544.944 1.248 1.728 2.112.64.688 1.152 1.28 1.536 1.776.4.496.736 1.072 1.008 1.728.288.64.432 1.336.432 2.088a4.78 4.78 0 0 1-.864 2.784c-.56.832-1.336 1.488-2.328 1.968-.976.48-2.064.72-3.264.72Zm10.184-.288c-.768 0-1.392-.24-1.872-.72-.464-.48-.696-1.2-.696-2.16 0-.4.064-.92.192-1.56l1.632-7.704h3.456l-1.728 8.16c-.048.24-.072.464-.072.672 0 .656.24.984.72.984.448 0 .832-.184 1.152-.552.32-.384.576-.904.768-1.56l1.632-7.704h3.456l-1.728 8.16a2.97 2.97 0 0 0-.096.768c0 .32.072.552.216.696.16.128.416.192.768.192.448 0 .832-.192 1.152-.576.336-.384.6-.896.792-1.536h1.008c-.592 1.728-1.328 2.904-2.208 3.528-.864.608-1.736.912-2.616.912-.688 0-1.24-.192-1.656-.576-.4-.384-.64-.952-.72-1.704-.544.88-1.12 1.48-1.728 1.8-.592.32-1.2.48-1.824.48ZM34.132 6.12h3.456l-.312 1.488c.544-.48 1.032-.848 1.464-1.104a2.855 2.855 0 0 1 1.44-.384c.512 0 .912.176 1.2.528.304.352.456.776.456 1.272 0 .464-.152.872-.456 1.224-.304.352-.728.528-1.272.528-.352 0-.592-.08-.72-.24-.112-.176-.2-.424-.264-.744a2.203 2.203 0 0 0-.144-.456c-.048-.096-.136-.144-.264-.144-.336 0-.624.072-.864.216-.224.128-.52.36-.888.696l-1.92 9.12h-3.456l2.544-12Zm5.231 18a2.874 2.874 0 0 1-1.968-.744 2.297 2.297 0 0 1-.864-1.848c0-.688.176-1.256.528-1.704a3.84 3.84 0 0 1 1.368-1.08c.56-.256 1.304-.528 2.232-.816l2.904-13.704c.32-1.536.88-2.6 1.68-3.192.816-.592 1.712-.888 2.688-.888.752 0 1.408.248 1.968.744.576.48.864 1.096.864 1.848 0 .368-.024.696-.072.984h-1.128c.032-.352.048-.568.048-.648 0-.256-.088-.456-.264-.6a.99.99 0 0 0-.648-.216c-.336 0-.664.152-.984.456-.32.288-.552.792-.696 1.512l-.408 1.896h1.752l-.168.96H46.42l-2.76 12.96c-.32 1.552-.872 2.616-1.656 3.192a4.272 4.272 0 0 1-2.64.888Zm-.552-2.136c.64 0 1.096-.624 1.368-1.872l.312-1.392c-.848.288-1.496.616-1.944.984-.464.384-.696.88-.696 1.488 0 .192.096.368.288.528a.963.963 0 0 0 .672.264ZM3.36 39.264c-1.088 0-1.92-.264-2.496-.792C.288 37.928 0 37.168 0 36.192c0-.48.056-.936.168-1.368L2.736 22.8l3.552-.48-1.152 5.4c.448-.272.816-.448 1.104-.528.288-.096.576-.144.864-.144 1.888 0 2.832 1.368 2.832 4.104 0 1.104-.216 2.288-.648 3.552a7.44 7.44 0 0 1-2.112 3.216c-.976.896-2.248 1.344-3.816 1.344Zm1.344-2.328c.496 0 .96-.304 1.392-.912.432-.624.776-1.392 1.032-2.304.256-.928.384-1.816.384-2.664 0-.64-.112-1.184-.336-1.632-.224-.448-.536-.672-.936-.672-.24 0-.512.04-.816.12-.288.064-.488.168-.6.312l-1.32 6.096a2.275 2.275 0 0 0-.072.552c0 .736.424 1.104 1.272 1.104Zm9.632 2.28c-1.184 0-2.12-.304-2.808-.912-.688-.608-1.032-1.568-1.032-2.88 0-1.088.224-2.296.672-3.624a8.473 8.473 0 0 1 2.16-3.432c.992-.976 2.24-1.464 3.744-1.464 2.048 0 3.072 1.28 3.072 3.84v.024a.966.966 0 0 0 .264.024c.528 0 1.136-.136 1.824-.408a9.553 9.553 0 0 0 1.872-1.032l.216.648c-.464.496-1.072.92-1.824 1.272a9.507 9.507 0 0 1-2.424.72c-.128 1.456-.456 2.728-.984 3.816-.528 1.088-1.208 1.928-2.04 2.52-.832.592-1.736.888-2.712.888Zm.96-2.16c.384 0 .768-.216 1.152-.648.384-.448.72-1.048 1.008-1.8.288-.768.496-1.616.624-2.544-.432-.096-.648-.432-.648-1.008 0-.656.248-1.088.744-1.296-.032-.528-.112-.888-.24-1.08-.128-.208-.352-.312-.672-.312-.528 0-1.04.384-1.536 1.152-.496.768-.896 1.688-1.2 2.76-.304 1.072-.456 2.016-.456 2.832 0 .768.088 1.288.264 1.56.176.256.496.384.96.384Zm8.963 2.208c-.912 0-1.672-.312-2.28-.936-.608-.624-.912-1.6-.912-2.928 0-1.184.232-2.424.696-3.72.48-1.312 1.184-2.416 2.112-3.312.944-.912 2.064-1.368 3.36-1.368.656 0 1.144.112 1.464.336.32.224.48.52.48.888v.168l.264-1.272h3.456l-1.728 8.16a2.97 2.97 0 0 0-.096.768c0 .688.328 1.032.984 1.032.448 0 .832-.208 1.152-.624.336-.416.6-.96.792-1.632h1.008c-.592 1.728-1.328 2.904-2.208 3.528-.864.608-1.736.912-2.616.912-.672 0-1.216-.184-1.632-.552-.4-.384-.64-.936-.72-1.656a6.8 6.8 0 0 1-1.56 1.608c-.56.4-1.232.6-2.016.6Zm1.56-2.328c.4 0 .792-.184 1.176-.552.4-.384.672-.904.816-1.56l1.152-5.424c0-.208-.08-.408-.24-.6-.16-.208-.408-.312-.744-.312-.64 0-1.216.376-1.728 1.128-.512.736-.912 1.632-1.2 2.688-.288 1.04-.432 1.96-.432 2.76 0 .8.112 1.312.336 1.536.24.224.528.336.864.336Zm9.825-9.816H39.1l-.312 1.488c.544-.48 1.032-.848 1.464-1.104a2.855 2.855 0 0 1 1.44-.384c.512 0 .912.176 1.2.528.304.352.456.776.456 1.272 0 .464-.152.872-.456 1.224-.304.352-.728.528-1.272.528-.352 0-.592-.08-.72-.24-.112-.176-.2-.424-.264-.744a2.203 2.203 0 0 0-.144-.456c-.048-.096-.136-.144-.264-.144-.336 0-.624.072-.864.216-.224.128-.52.36-.888.696l-1.92 9.12H33.1l2.544-12Zm10.271 12.144c-.912 0-1.672-.312-2.28-.936-.608-.624-.912-1.6-.912-2.928 0-1.184.232-2.424.696-3.72.48-1.312 1.184-2.416 2.112-3.312.944-.912 2.064-1.368 3.36-1.368.656 0 1.144.112 1.464.336.32.224.48.52.48.888v.096l1.176-5.52 3.552-.48-2.76 12.96c-.064.24-.096.472-.096.696 0 .64.328.96.984.96.288 0 .544-.048.768-.144-.064.8-.352 1.416-.864 1.848-.496.416-1.088.624-1.776.624-.64 0-1.184-.16-1.632-.48-.432-.336-.72-.84-.864-1.512-.96 1.328-2.096 1.992-3.408 1.992Zm1.56-2.328c.352 0 .704-.152 1.056-.456.368-.304.64-.728.816-1.272l.096-.384 1.176-5.496c-.144-.56-.472-.84-.984-.84-.64 0-1.216.376-1.728 1.128-.512.736-.912 1.632-1.2 2.688-.288 1.04-.432 1.96-.432 2.76 0 .8.112 1.312.336 1.536.24.224.528.336.864.336Z" fill="#fff"/></symbol><symbol id="phone"><g clip-path="url('#clip0_2_1213')"><path d="M23.948 18.596c-.068-.205-.5-.506-1.295-.904a39.775 39.775 0 0 0-.92-.511 85.168 85.168 0 0 1-1.083-.597 36.067 36.067 0 0 1-.912-.528 22.128 22.128 0 0 0-.426-.298 4.786 4.786 0 0 0-.605-.367 1.117 1.117 0 0 0-.486-.12c-.227 0-.51.163-.852.487-.34.324-.653.676-.937 1.057-.284.38-.585.732-.903 1.056-.318.324-.58.486-.784.486a1.16 1.16 0 0 1-.384-.085 3.991 3.991 0 0 1-.35-.144c-.079-.04-.215-.12-.408-.24-.194-.119-.302-.184-.324-.196-1.557-.863-2.892-1.852-4.006-2.965-1.113-1.114-2.102-2.45-2.966-4.006a9.956 9.956 0 0 0-.196-.324 6.125 6.125 0 0 1-.239-.41 3.692 3.692 0 0 1-.144-.349 1.153 1.153 0 0 1-.086-.383c0-.205.162-.466.486-.784.324-.318.677-.62 1.057-.903.38-.284.733-.597 1.057-.938.324-.34.486-.625.486-.852 0-.159-.04-.32-.12-.486a4.738 4.738 0 0 0-.366-.605c-.165-.238-.264-.38-.299-.426-.17-.284-.346-.588-.528-.912-.182-.324-.38-.685-.597-1.082a40.51 40.51 0 0 0-.51-.92C5.91.55 5.607.119 5.403.05A.955.955 0 0 0 5.046 0c-.307 0-.707.057-1.202.17-.494.114-.883.233-1.167.358-.569.239-1.17.932-1.807 2.08C.29 3.676 0 4.733 0 5.778c0 .307.02.605.06.895.04.29.111.616.213.98.103.364.185.634.247.81.063.176.18.49.35.946.17.454.272.732.307.835a15.44 15.44 0 0 0 1.414 2.983c.897 1.454 2.122 2.957 3.673 4.508 1.551 1.551 3.054 2.776 4.509 3.674.875.545 1.87 1.016 2.983 1.414.102.034.38.136.835.307.454.17.77.287.946.35.176.062.446.145.809.247.364.102.69.174.98.214.29.039.588.06.895.06 1.045 0 2.102-.29 3.17-.87 1.148-.637 1.841-1.239 2.08-1.807.125-.284.244-.673.358-1.168.114-.494.17-.894.17-1.201a.951.951 0 0 0-.05-.36Z"/></g><defs><clipPath id="clip0_2_1213"><path fill="#fff" d="M0 0h24v24H0z"/></clipPath></defs></symbol><symbol id="gamburger"><g clip-path="url('#clip0_2_1091')" fill="#0D0E0F"><path d="M24 0H2.063C.87 0 0 .869 0 2.063v.326c0 1.086.869 1.955 2.063 1.955H24.11a2.062 2.062 0 0 0 2.063-2.063v-.218C26.063.87 25.195 0 24 0ZM24 9.774H2.063A2.062 2.062 0 0 0 0 11.837v.326c0 1.086.869 2.063 2.063 2.063H24.11a2.062 2.062 0 0 0 2.063-2.063v-.326c-.109-1.086-.977-2.063-2.172-2.063ZM24 19.547H2.063A2.062 2.062 0 0 0 0 21.611v.326C0 23.023.869 24 2.063 24H24.11a2.062 2.062 0 0 0 2.063-2.063v-.326c-.109-1.086-.977-2.064-2.172-2.064Z"/></g><defs><clipPath id="clip0_2_1091"><path fill="#fff" d="M0 0h26.063v24H0z"/></clipPath></defs></symbol><symbol id="close"><g clip-path="url('#clip0_2_1092')"><path d="M16.267 12 23.2 5.067c1.067-1.067 1.067-2.667 0-3.6l-.533-.534C21.6-.133 20-.133 19.067.933L12 7.733 5.067.8C4-.267 2.4-.267 1.333.8L.8 1.333C-.267 2.4-.267 4 .8 4.933L7.733 12 .8 18.933C-.267 20-.267 21.6.8 22.533l.533.667c1.067 1.067 2.667 1.067 3.6 0L12 16.267l6.933 6.933c1.067 1.067 2.667 1.067 3.6 0l.534-.533c1.066-1.067 1.066-2.667 0-3.6L16.267 12Z"/></g><defs><clipPath id="clip0_2_1092"><path fill="#fff" d="M0 0h24v24H0z"/></clipPath></defs></symbol><symbol id="main-2"><path d="M47.622 4.378a1.287 1.287 0 0 0-1.028-.373c-.159.015-3.953.376-9.156 2.122C20.504 11.343 9.296 27.763 4.085 39.642c-.328.784.334 1.834 1.327 1.747l5.756-.56-.56 5.756c-.062.827.742 1.699 1.747 1.327 20.68-9.423 33.293-23.845 35.64-42.506a1.288 1.288 0 0 0-.373-1.028ZM30.96 32.707a76.21 76.21 0 0 1-6.62 5.373V16.134a41.37 41.37 0 0 1 6.62-4.409v20.982Zm-12.578 9.272a64.47 64.47 0 0 1-4.995 2.66l.498-5.12c.074-.665-.542-1.508-1.408-1.407l-5.117.498c1.73-3.668 6.385-12.207 14.403-20.154v21.41a73.758 73.758 0 0 1-3.38 2.113Zm25.023-28.166c-1.514 4.485-4.453 10.961-9.868 16.428v-19.8c3.528-1.703 8.916-3.23 11.657-3.635a46.992 46.992 0 0 1-1.789 7.007Z"/></symbol><symbol id="main-3"><g clip-path="url('#clip0_2_1032')"><path d="M46.71 19.555h-9.224l.003-.024a10.462 10.462 0 0 0 2.555-3.267 1.289 1.289 0 0 0-1.153-1.866H36.9a11.404 11.404 0 0 0-1.882-3.367c.105-1.41-.064-2.791-.504-4.111a1.289 1.289 0 0 0-2.135-.504l-1.41 1.41a11.393 11.393 0 0 0-3.703-1.05c-.973-1.145-2.094-2.052-3.269-2.64a1.29 1.29 0 0 0-1.865 1.153v2.076a11.405 11.405 0 0 0-3.368 1.882 10.459 10.459 0 0 0-4.11.504 1.29 1.29 0 0 0-.505 2.134l1.41 1.41A11.394 11.394 0 0 0 14.51 17a10.504 10.504 0 0 0-2.162 2.554H5.29c-.712 0-1.289.577-1.289 1.289V26c0 .712.577 1.29 1.29 1.29h1.374V46.71c0 .712.577 1.29 1.29 1.29h5.155a1.29 1.29 0 0 0 1.29-1.29v-4.37L26 37.702l11.602 4.64v4.37c0 .712.577 1.289 1.289 1.289h5.156a1.29 1.29 0 0 0 1.289-1.29V27.29h1.375A1.29 1.29 0 0 0 48 26v-5.156a1.29 1.29 0 0 0-1.29-1.29Zm-30.172-.882c.294-.228.476-.571.498-.943a8.877 8.877 0 0 1 1.22-4.018 1.29 1.29 0 0 0-.199-1.566l-.347-.347c.431-.013.868.008 1.308.064a1.29 1.29 0 0 0 1.018-.316 8.891 8.891 0 0 1 3.709-1.982c.569-.147.966-.66.966-1.247v-.51c.307.302.602.635.882.996.228.294.571.475.942.498a8.876 8.876 0 0 1 4.018 1.22 1.29 1.29 0 0 0 1.567-.199l.347-.347c.013.43-.008.867-.064 1.308-.047.369.068.74.315 1.018a8.892 8.892 0 0 1 1.982 3.709c.147.568.66.966 1.248.966h.486c-.296.315-.62.609-.972.882a1.29 1.29 0 0 0-.498.942 9.16 9.16 0 0 1-.077.754h-5.242A3.872 3.872 0 0 0 26 14.399a3.872 3.872 0 0 0-3.645 5.156h-6.789c.296-.315.62-.61.972-.882Zm10.751-.407c0 .71-.578 1.289-1.289 1.289a1.29 1.29 0 0 1-1.29-1.29 1.29 1.29 0 0 1 2.578 0ZM11.82 45.422H9.242V27.289h2.578v18.133Zm2.578-5.857V33.06l8.131 3.252-8.13 3.253Zm23.204 0-8.131-3.252 8.13-3.253v6.505Zm0-9.281L26 34.923l-11.602-4.64v-2.995h23.204v2.994Zm5.156 15.138H40.18V27.289h2.578v18.133Zm2.664-20.711H6.578v-2.578h38.844v2.578Z"/></g><defs><clipPath id="clip0_2_1032"><path fill="#fff" transform="translate(4 4)" d="M0 0h44v44H0z"/></clipPath></defs></symbol><symbol id="main-1"><path d="M37.231 30.412a5.552 5.552 0 0 0-5.546 5.546 5.552 5.552 0 0 0 5.546 5.546 5.552 5.552 0 0 0 5.546-5.546 5.552 5.552 0 0 0-5.546-5.546Zm0 8.32a2.776 2.776 0 0 1-2.773-2.774 2.776 2.776 0 0 1 2.773-2.773 2.776 2.776 0 0 1 2.773 2.773 2.776 2.776 0 0 1-2.773 2.773ZM18.282 30.412a5.552 5.552 0 0 0-5.547 5.546 5.552 5.552 0 0 0 5.547 5.546 5.552 5.552 0 0 0 5.546-5.546 5.553 5.553 0 0 0-5.546-5.546Zm0 8.32a2.776 2.776 0 0 1-2.774-2.774 2.776 2.776 0 0 1 2.774-2.773 2.776 2.776 0 0 1 2.773 2.773 2.776 2.776 0 0 1-2.773 2.773ZM40.966 14.537a1.387 1.387 0 0 0-1.24-.764h-7.302v2.773h6.448l3.775 7.51 2.479-1.246-4.16-8.273Z"/><path d="M33.072 34.618H22.58v2.773h10.492v-2.773ZM14.122 34.618H9.315a1.386 1.386 0 1 0 0 2.773h4.807a1.386 1.386 0 1 0 0-2.773ZM47.709 26.141 44.98 22.63a1.385 1.385 0 0 0-1.094-.537H33.81v-9.705c0-.766-.62-1.387-1.387-1.387H9.315a1.386 1.386 0 1 0 0 2.773h21.723v9.706c0 .766.62 1.386 1.386 1.386h10.784l2.019 2.602v7.15H41.39a1.386 1.386 0 1 0 0 2.774h5.222c.766 0 1.387-.621 1.387-1.387v-9.012c0-.308-.103-.608-.291-.85ZM14.03 27.593H7.65a1.386 1.386 0 1 0 0 2.773h6.378a1.386 1.386 0 1 0 0-2.773ZM17.218 22.139H5.387a1.387 1.387 0 0 0 0 2.773h11.831a1.386 1.386 0 1 0 0-2.773Z"/><path d="M19.483 16.685H7.651a1.386 1.386 0 1 0 0 2.773h11.832a1.386 1.386 0 1 0 0-2.773Z"/></symbol><symbol id="feat-2"><path d="M53.836 60.031h-5.977v-4.25h2.663a1.992 1.992 0 1 0 0-3.984H47.86v-3.984h5.32a1.992 1.992 0 0 0 0-3.985h-5.32v-3.984h2.663a1.992 1.992 0 0 0 0-3.985H47.86v-3.984h5.32a1.992 1.992 0 0 0 0-3.984h-5.32v-3.985h2.663a1.992 1.992 0 1 0 0-3.984H47.86v-3.985h5.32a1.992 1.992 0 0 0 0-3.984h-5.32V7.97h2.663a1.992 1.992 0 0 0 0-3.985H47.86V1.992a1.992 1.992 0 0 0-3.984 0v58.04h-7.193L37.778 42.5h.127c1.1 0 1.992-.892 1.992-1.992V27.223c0-4.422-2.899-8.179-6.896-9.474a5.978 5.978 0 0 0 2.919-5.132 5.983 5.983 0 0 0-5.977-5.976 5.983 5.983 0 0 0-5.977 5.976 5.979 5.979 0 0 0 2.916 5.13c-3.999 1.294-6.9 5.052-6.9 9.476v13.285c0 1.1.892 1.992 1.992 1.992h.12l1.096 17.531h-9.198c-1.1 0-1.992.892-1.992 1.992v3.985a1.992 1.992 0 0 0 3.984 0v-1.992h35.86v1.992a1.992 1.992 0 1 0 3.984 0v-3.985c0-1.1-.892-1.992-1.992-1.992ZM29.943 10.625c1.098 0 1.992.894 1.992 1.992a1.994 1.994 0 0 1-1.992 1.992 1.994 1.994 0 0 1-1.992-1.992c0-1.098.893-1.992 1.992-1.992Zm-5.977 16.598a5.98 5.98 0 0 1 5.974-5.973 5.98 5.98 0 0 1 5.973 5.973v11.293H23.966V27.223Zm2.12 15.277h7.7L32.69 60.031h-5.507L26.087 42.5Z"/></symbol><symbol id="feat-1"><path d="M35.875 32.181V21.817h4.15c9.893 0 17.942-8.049 17.942-17.942 0-1.035-.84-1.875-1.875-1.875h-6.027C43.037 2 36.94 6.063 34 11.962 31.058 6.062 24.962 2 17.933 2h-6.025c-1.035 0-1.875.84-1.875 1.875 0 9.893 8.049 17.942 17.942 17.942h4.15V32.18C15.325 33.152 2 47.081 2 64.125 2 65.16 2.84 66 3.875 66h60.25C65.16 66 66 65.16 66 64.125c0-17.044-13.325-30.973-30.125-31.944ZM50.065 5.75h4.028c-.92 6.942-6.879 12.317-14.068 12.317h-4.027c.92-6.943 6.877-12.317 14.067-12.317Zm-22.09 12.317c-7.19 0-13.148-5.375-14.068-12.317h4.026c7.19 0 13.148 5.375 14.069 12.317h-4.027ZM5.81 62.25c.929-14.33 11.435-22.005 18.282-24.584v4.712c0 .572-.223 1.11-.628 1.515l-6.025 6.025a5.898 5.898 0 0 0 0 8.33l4.001 4.002H5.81Zm20.933 0-6.652-6.653a2.14 2.14 0 0 1 0-3.028l6.025-6.025a5.853 5.853 0 0 0 1.726-4.166v-5.83A28.366 28.366 0 0 1 34 35.876c4.914 0 9.677 1.259 13.906 3.659L37.522 49.918a5.888 5.888 0 0 0 0 8.33l4.001 4.002h-14.78Zm20.084 0-6.653-6.653a2.14 2.14 0 0 1 0-3.028L51.1 41.643A28.253 28.253 0 0 1 62.188 62.25H46.827Z"/></symbol><symbol id="feat-3"><path d="M67.58 64.784c-.105-.135-2.63-3.336-7.98-6.493-2.61-1.541-6.209-3.24-10.814-4.482a69.333 69.333 0 0 0 2.564-13.706c.541-6.407.157-12.667-1.142-18.607-1.629-7.443-4.704-14.392-9.14-20.655a1.992 1.992 0 0 0-3.251 0 57.452 57.452 0 0 0-3.787 6.122A57.406 57.406 0 0 0 30.243.84a1.992 1.992 0 0 0-3.251 0c-4.437 6.262-7.512 13.212-9.14 20.655-1.3 5.94-1.684 12.2-1.143 18.607a69.254 69.254 0 0 0 2.646 13.981c-4.245 1.204-7.67 2.76-10.234 4.18C3.467 61.392.623 64.55.504 64.682A1.992 1.992 0 0 0 1.992 68h64.016a1.992 1.992 0 0 0 1.572-3.216ZM20.963 26.958l13.363-9.08a52.198 52.198 0 0 1 1.046 3.84L20.53 31.804c.073-1.56.212-3.18.433-4.846Zm1.01-5.504a52.327 52.327 0 0 1 6.646-15.88 52.556 52.556 0 0 1 4.322 8.428l-10.967 7.452Zm-1.477 15.19L36.18 25.987c.645 4.373.776 8.924.388 13.64a65.613 65.613 0 0 1-2.244 12.389 57.109 57.109 0 0 0-11.085 1.126 65.327 65.327 0 0 1-2.558-13.375 61.201 61.201 0 0 1-.184-3.123Zm14.177 19.353c10.801 0 18.316 3.054 22.718 5.617a33.152 33.152 0 0 1 3.58 2.402H7.435c4.744-3.346 13.779-8.019 27.24-8.019Zm4.771-50.423c6.314 9.995 8.986 21.436 7.947 34.053a65.47 65.47 0 0 1-2.508 13.298 54.31 54.31 0 0 0-6.45-.792 69.732 69.732 0 0 0 2.092-12.03c.541-6.407.157-12.667-1.142-18.607a56.366 56.366 0 0 0-3.169-9.964 52.205 52.205 0 0 1 3.23-5.958Z"/></symbol><symbol id="prev"><path d="M19 34 6.914 21.914a2 2 0 0 1 0-2.828L19 7" stroke="#000" stroke-width="2" stroke-linecap="round"/></symbol><symbol id="next"><path d="m5 6 12.086 12.086a2 2 0 0 1 0 2.828L5 33" stroke="#000" stroke-width="2" stroke-linecap="round"/></symbol><symbol id="params"><rect width="91" height="91" rx="4"/><path d="m15.225 72.141.07 2.859h-1.891l.084-2.69-.07-4.862h-3.251l-.07 4.694.07 2.858H8.275l.084-2.69-.084-6.334h7.048l-.098 6.165ZM24.765 75h-1.933l-.224-1.177-.239-.84-1.765-.043-1.556.042-.238.743L18.572 75h-1.878l3.055-9.024h2.256L24.765 75Zm-2.802-3.489-1.065-3.755h-.126l-1.233 3.755 1.205.028 1.219-.028Zm7.685-5.549c.944 0 1.668.238 2.172.715.514.476.77 1.158.77 2.046 0 .681-.149 1.28-.448 1.793a3.034 3.034 0 0 1-1.289 1.177c-.551.28-1.2.42-1.948.42h-.896v.028L28.093 75h-1.906l.098-2.69-.098-6.334 3.461-.014Zm-.322 4.764c.86-.243 1.289-.854 1.289-1.835 0-.505-.13-.878-.392-1.121-.253-.252-.645-.388-1.177-.407l-.953.056-.056 3.251 1.289.056ZM40.46 75h-1.934l-.224-1.177-.238-.84-1.766-.043-1.555.042-.239.743L34.267 75H32.39l3.054-9.024H37.7L40.46 75Zm-2.803-3.489-1.065-3.755h-.126l-1.233 3.755 1.205.028 1.22-.028ZM51.355 75h-1.682l-.14-2.732-.322-3.475h-.14l-2.018 5.254h-1.471l-1.836-5.254h-.126l-.35 3.292L43.072 75h-1.597l.91-9.024h2.187l.364 1.331 1.43 4.274h.125l1.5-4.274.406-1.33h2.144L51.355 75Zm7.697-1.57.112.155L59.037 75h-5.66l.098-2.69-.098-6.334h5.716l.113.154-.14 1.416-2.158-.07-1.626.014-.042 2.171 1.555.028 1.472-.042.112.14-.126 1.416-1.598-.042-1.443.014-.014.966.042 1.36 1.584.014 2.227-.084Zm7.55-7.3-.111 1.416-1.696-.085h-.56l-.07 4.68.084 2.859h-1.906l.098-2.69-.07-4.849h-.56l-1.724.085-.126-.155.126-1.415h6.404l.112.154Zm4.754-.168c.943 0 1.667.238 2.172.715.514.476.77 1.158.77 2.046 0 .681-.149 1.28-.448 1.793a3.033 3.033 0 0 1-1.289 1.177c-.551.28-1.2.42-1.948.42h-.897v.028L69.801 75h-1.906l.098-2.69-.098-6.334 3.461-.014Zm-.322 4.764c.86-.243 1.289-.854 1.289-1.835 0-.505-.131-.878-.393-1.121-.252-.252-.644-.388-1.177-.407l-.952.056-.056 3.251 1.289.056Zm8.118-1.289c.84 0 1.485.215 1.933.645.449.42.673 1.027.673 1.821 0 .972-.322 1.733-.967 2.284-.644.542-1.541.813-2.69.813h-2.494l.098-2.676-.098-6.348h1.92l-.057 3.461h1.682Zm5.478 2.704L84.715 75h-1.906l.098-2.69-.098-6.334h1.934l-.113 6.165Zm-6.025 1.542c.383-.075.677-.243.883-.505.206-.27.308-.611.308-1.022 0-.44-.112-.776-.336-1.01-.215-.242-.528-.364-.939-.364l-1.065.028-.028 1.331.042 1.486 1.135.056Z" fill="#fff"/><g clip-path="url('#clip0_2_30')"><path d="m45.213 17.326-6.67 6.67a1.113 1.113 0 0 0 0 1.574l3.15 3.149c.264.263.626.367.968.311v3.63h-3.63a1.113 1.113 0 0 0-.312-.967l-3.149-3.15a1.113 1.113 0 0 0-1.574 0l-6.67 6.67a1.113 1.113 0 0 0 0 1.574l6.67 6.67c.434.434 1.14.434 1.574 0l3.15-3.15c.257-.257.368-.62.31-.967h3.63v3.63a1.111 1.111 0 0 0-.967.311l-3.15 3.15a1.113 1.113 0 0 0 0 1.574l6.67 6.669c.435.435 1.14.435 1.575 0l6.669-6.67a1.114 1.114 0 0 0 0-1.574l-3.15-3.149a1.11 1.11 0 0 0-.967-.311v-3.63h3.63c-.057.348.054.71.312.967l3.149 3.15c.434.434 1.14.434 1.574 0l6.67-6.67a1.113 1.113 0 0 0 0-1.574l-6.67-6.67a1.114 1.114 0 0 0-1.574 0l-3.15 3.15c-.257.258-.368.62-.31.967h-3.63v-3.63c.34.056.703-.047.967-.31l3.149-3.15a1.113 1.113 0 0 0 0-1.574l-6.67-6.67a1.113 1.113 0 0 0-1.574 0Zm4.308 9.031-.507-.506c-.698-.699-1.9-.204-1.9.787v7.135c0 .615.498 1.114 1.113 1.114h7.135c.989 0 1.488-1.2.788-1.9l-.507-.507 1.575-1.575L62.313 36l-5.095 5.095-1.575-1.575.507-.506c.698-.699.203-1.9-.788-1.9h-7.135c-.615 0-1.113.498-1.113 1.113v7.135c0 .992 1.202 1.485 1.9.787l.506-.506 1.575 1.575L46 52.312l-5.094-5.095 1.574-1.574.507.506c.698.699 1.9.204 1.9-.787v-7.135c0-.615-.498-1.114-1.113-1.114h-7.136c-.988 0-1.487 1.2-.787 1.9l.507.507-1.575 1.575L29.688 36l5.095-5.095 1.575 1.575-.507.506c-.699.7-.203 1.9.787 1.9h7.136c.615 0 1.113-.498 1.113-1.113v-7.135c0-.988-1.2-1.488-1.9-.787l-.507.506-1.574-1.574L46 19.688l5.095 5.095-1.574 1.574Z" fill="#fff"/></g><defs><clipPath id="clip0_2_30"><path fill="#fff" transform="translate(27 17)" d="M0 0h38v38H0z"/></clipPath></defs></symbol><symbol id="length"><path d="M11.006 13.095 11.007 9 4 16.01l7.007 7.008v-4.095l9.985.002v4.093L28 16.01 20.992 9v4.095h-9.986Z" fill="#010002"/></symbol><symbol id="width"><path d="m10.409 17.48-2.896-2.897.002 9.912h9.91l-2.896-2.894 7.063-7.06 2.894 2.895V7.524h-9.912l2.895 2.895-7.06 7.06Z" fill="#010002"/></symbol><symbol id="thickness"><path d="M26.594 9.484H5.454a1.406 1.406 0 0 0 0 2.813h21.14a1.406 1.406 0 0 0 0-2.813ZM27.063 4H4.938a.937.937 0 1 0 0 1.875h22.125a.937.937 0 1 0 0-1.875ZM25.656 23.313H6.391a2.344 2.344 0 1 0 0 4.687h19.265a2.344 2.344 0 1 0 0-4.688ZM26.125 15.906H5.922a1.875 1.875 0 0 0 0 3.75h20.203a1.875 1.875 0 1 0 0-3.75Z"/></symbol><symbol id="life-time"><path d="M24 26h-1v-3.273a5.755 5.755 0 0 0-1.903-4.274l-1.693-1.523a1.238 1.238 0 0 1-.414-.93c0-.359.147-.689.414-.929l1.693-1.523A5.76 5.76 0 0 0 23 9.273V6h1a1 1 0 1 0 0-2H8a1 1 0 1 0 0 2h1v3.273c0 1.628.693 3.186 1.903 4.274l1.693 1.523c.267.241.414.571.414.93 0 .359-.147.689-.414.929l-1.693 1.523A5.76 5.76 0 0 0 9 22.727V26H8a1 1 0 1 0 0 2h16a1 1 0 1 0 0-2Zm-12-3.171c0-.735.286-1.425.806-1.945l2.664-2.664a.75.75 0 0 1 1.061 0l2.664 2.664c.52.52.806 1.21.806 1.945V26H12v-3.171Z"/></symbol><symbol id="weight"><path d="m26.983 25.137-2.095-12.516a2.447 2.447 0 0 0-2.416-2.043h-3.148c.37-.643.58-1.388.58-2.181A4.401 4.401 0 0 0 15.509 4a4.402 4.402 0 0 0-4.397 4.397c0 .793.211 1.538.58 2.181H8.545a2.447 2.447 0 0 0-2.416 2.044L4.034 25.14A2.454 2.454 0 0 0 6.45 28h18.119a2.455 2.455 0 0 0 2.414-2.863ZM15.509 6.561c1.011 0 1.835.824 1.835 1.836a1.837 1.837 0 0 1-1.835 1.835 1.838 1.838 0 0 1-1.836-1.835c0-1.013.823-1.836 1.836-1.836Z"/></symbol><symbol id="checkmark"><g clip-path="url('#clip0_2_1093')"><path d="M28.414 1.655C26.483-.552 23.172-.552 21.24 1.38L11.034 11.586 8.829 9.38c-1.931-1.93-5.242-1.93-7.173 0H1.38c-1.93 1.931-1.93 5.242 0 7.173l6.07 6.069C8.551 23.724 9.93 24 11.033 24c1.38 0 2.483-.552 3.587-1.38L28.414 8.828c1.93-1.93 1.93-5.24 0-7.172Z" fill="#0D0E0F"/></g><defs><clipPath id="clip0_2_1093"><path fill="#fff" d="M0 0h30.069v24H0z"/></clipPath></defs></symbol><symbol id="marker"><path d="M38 0C24.783 0 0 10 0 38.333 0 66.667 38 95 38 95s38-28.333 38-56.667C76 10 51.217 0 38 0Z" fill="#FEDB3F"/><path d="M22.767 37.432c-1.008 0-1.896-.176-2.664-.528-.768-.352-1.36-.84-1.776-1.464-.416-.64-.624-1.376-.624-2.208 0-.704.144-1.344.432-1.92a3.703 3.703 0 0 1 1.2-1.368 3 3 0 0 1 1.68-.504c.56 0 1.032.144 1.416.432.384.272.624.656.72 1.152-.832 0-1.496.224-1.992.672-.496.432-.744 1.024-.744 1.776 0 .688.208 1.24.624 1.656.416.416.968.624 1.656.624.848 0 1.544-.28 2.088-.84.56-.576.84-1.296.84-2.16 0-.752-.208-1.464-.624-2.136-.416-.672-1.04-1.488-1.872-2.448-.864-.992-1.52-1.84-1.968-2.544a4.488 4.488 0 0 1-.648-2.352c0-.832.232-1.576.696-2.232.464-.672 1.104-1.2 1.92-1.584.816-.384 1.736-.576 2.76-.576 1.296 0 2.328.304 3.096.912.784.608 1.176 1.424 1.176 2.448 0 .672-.168 1.216-.504 1.632a1.615 1.615 0 0 1-1.32.624c-.608 0-1.096-.248-1.464-.744.304-.224.544-.52.72-.888.176-.368.264-.752.264-1.152 0-.512-.152-.92-.456-1.224-.304-.304-.72-.456-1.248-.456-.64 0-1.168.232-1.584.696-.4.448-.6 1.024-.6 1.728 0 .64.184 1.24.552 1.8.368.544.944 1.248 1.728 2.112.64.688 1.152 1.28 1.536 1.776.4.496.736 1.072 1.008 1.728.288.64.432 1.336.432 2.088a4.78 4.78 0 0 1-.864 2.784c-.56.832-1.336 1.488-2.328 1.968-.976.48-2.064.72-3.264.72Zm10.183-.288c-.768 0-1.392-.24-1.872-.72-.464-.48-.696-1.2-.696-2.16 0-.4.064-.92.192-1.56L32.206 25h3.456l-1.728 8.16c-.048.24-.072.464-.072.672 0 .656.24.984.72.984.448 0 .832-.184 1.152-.552.32-.384.576-.904.768-1.56L38.134 25h3.456l-1.728 8.16a2.97 2.97 0 0 0-.096.768c0 .32.072.552.216.696.16.128.416.192.768.192.448 0 .832-.192 1.152-.576.336-.384.6-.896.792-1.536h1.008c-.592 1.728-1.328 2.904-2.208 3.528-.864.608-1.736.912-2.616.912-.688 0-1.24-.192-1.656-.576-.4-.384-.64-.952-.72-1.704-.544.88-1.12 1.48-1.728 1.8-.592.32-1.2.48-1.824.48ZM44.323 25h3.456l-.312 1.488c.544-.48 1.032-.848 1.464-1.104a2.855 2.855 0 0 1 1.44-.384c.512 0 .912.176 1.2.528.304.352.456.776.456 1.272 0 .464-.152.872-.456 1.224-.304.352-.728.528-1.272.528-.352 0-.592-.08-.72-.24-.112-.176-.2-.424-.264-.744a2.203 2.203 0 0 0-.144-.456c-.048-.096-.136-.144-.264-.144-.336 0-.624.072-.864.216-.224.128-.52.36-.888.696L45.235 37H41.78l2.544-12Zm5.232 18a2.874 2.874 0 0 1-1.968-.744 2.297 2.297 0 0 1-.864-1.848c0-.688.176-1.256.528-1.704a3.84 3.84 0 0 1 1.368-1.08c.56-.256 1.304-.528 2.232-.816l2.904-13.704c.32-1.536.88-2.6 1.68-3.192.816-.592 1.712-.888 2.688-.888.752 0 1.408.248 1.968.744.576.48.864 1.096.864 1.848 0 .368-.024.696-.072.984h-1.128c.032-.352.048-.568.048-.648 0-.256-.088-.456-.264-.6a.99.99 0 0 0-.648-.216c-.336 0-.664.152-.984.456-.32.288-.552.792-.696 1.512L56.803 25h1.752l-.168.96H56.61l-2.76 12.96c-.32 1.552-.872 2.616-1.656 3.192a4.272 4.272 0 0 1-2.64.888Zm-.552-2.136c.64 0 1.096-.624 1.368-1.872l.312-1.392c-.848.288-1.496.616-1.944.984-.464.384-.696.88-.696 1.488 0 .192.096.368.288.528a.963.963 0 0 0 .672.264ZM13.55 58.144c-1.088 0-1.92-.264-2.496-.792-.576-.544-.864-1.304-.864-2.28 0-.48.056-.936.168-1.368l2.568-12.024 3.552-.48-1.152 5.4c.448-.272.816-.448 1.104-.528.288-.096.576-.144.864-.144 1.888 0 2.832 1.368 2.832 4.104 0 1.104-.216 2.288-.648 3.552a7.44 7.44 0 0 1-2.112 3.216c-.976.896-2.248 1.344-3.816 1.344Zm1.344-2.328c.496 0 .96-.304 1.392-.912.432-.624.776-1.392 1.032-2.304.256-.928.384-1.816.384-2.664 0-.64-.112-1.184-.336-1.632-.224-.448-.536-.672-.936-.672-.24 0-.512.04-.816.12-.288.064-.488.168-.6.312l-1.32 6.096a2.275 2.275 0 0 0-.072.552c0 .736.424 1.104 1.272 1.104Zm9.632 2.28c-1.184 0-2.12-.304-2.808-.912-.688-.608-1.032-1.568-1.032-2.88 0-1.088.224-2.296.672-3.624a8.473 8.473 0 0 1 2.16-3.432c.992-.976 2.24-1.464 3.744-1.464 2.048 0 3.072 1.28 3.072 3.84v.024a.966.966 0 0 0 .264.024c.528 0 1.136-.136 1.824-.408a9.553 9.553 0 0 0 1.872-1.032l.216.648c-.464.496-1.072.92-1.824 1.272a9.507 9.507 0 0 1-2.424.72c-.128 1.456-.456 2.728-.984 3.816-.528 1.088-1.208 1.928-2.04 2.52-.832.592-1.736.888-2.712.888Zm.96-2.16c.384 0 .768-.216 1.152-.648.384-.448.72-1.048 1.008-1.8.288-.768.496-1.616.624-2.544-.432-.096-.648-.432-.648-1.008 0-.656.248-1.088.744-1.296-.032-.528-.112-.888-.24-1.08-.128-.208-.352-.312-.672-.312-.528 0-1.04.384-1.536 1.152-.496.768-.896 1.688-1.2 2.76-.304 1.072-.456 2.016-.456 2.832 0 .768.088 1.288.264 1.56.176.256.496.384.96.384Zm8.963 2.208c-.912 0-1.672-.312-2.28-.936-.608-.624-.912-1.6-.912-2.928 0-1.184.232-2.424.696-3.72.48-1.312 1.184-2.416 2.112-3.312.944-.912 2.064-1.368 3.36-1.368.656 0 1.144.112 1.464.336.32.224.48.52.48.888v.168L39.634 46h3.456l-1.728 8.16a2.97 2.97 0 0 0-.096.768c0 .688.328 1.032.984 1.032.448 0 .832-.208 1.152-.624.336-.416.6-.96.792-1.632h1.008c-.592 1.728-1.328 2.904-2.208 3.528-.864.608-1.736.912-2.616.912-.672 0-1.216-.184-1.632-.552-.4-.384-.64-.936-.72-1.656a6.8 6.8 0 0 1-1.56 1.608c-.56.4-1.232.6-2.016.6Zm1.56-2.328c.4 0 .792-.184 1.176-.552.4-.384.672-.904.816-1.56l1.152-5.424c0-.208-.08-.408-.24-.6-.16-.208-.408-.312-.744-.312-.64 0-1.216.376-1.728 1.128-.512.736-.912 1.632-1.2 2.688-.288 1.04-.432 1.96-.432 2.76 0 .8.112 1.312.336 1.536.24.224.528.336.864.336ZM45.835 46h3.456l-.312 1.488c.544-.48 1.032-.848 1.464-1.104a2.855 2.855 0 0 1 1.44-.384c.512 0 .912.176 1.2.528.304.352.456.776.456 1.272 0 .464-.152.872-.456 1.224-.304.352-.728.528-1.272.528-.352 0-.592-.08-.72-.24-.112-.176-.2-.424-.264-.744a2.203 2.203 0 0 0-.144-.456c-.048-.096-.136-.144-.264-.144-.336 0-.624.072-.864.216-.224.128-.52.36-.888.696L46.747 58h-3.456l2.544-12Zm10.272 12.144c-.912 0-1.672-.312-2.28-.936-.608-.624-.912-1.6-.912-2.928 0-1.184.232-2.424.696-3.72.48-1.312 1.184-2.416 2.112-3.312.944-.912 2.064-1.368 3.36-1.368.656 0 1.144.112 1.464.336.32.224.48.52.48.888v.096l1.176-5.52 3.552-.48-2.76 12.96c-.064.24-.096.472-.096.696 0 .64.328.96.984.96.288 0 .544-.048.768-.144-.064.8-.352 1.416-.864 1.848-.496.416-1.088.624-1.776.624-.64 0-1.184-.16-1.632-.48-.432-.336-.72-.84-.864-1.512-.96 1.328-2.096 1.992-3.408 1.992Zm1.56-2.328c.352 0 .704-.152 1.056-.456.368-.304.64-.728.816-1.272l.096-.384 1.176-5.496c-.144-.56-.472-.84-.984-.84-.64 0-1.216.376-1.728 1.128-.512.736-.912 1.632-1.2 2.688-.288 1.04-.432 1.96-.432 2.76 0 .8.112 1.312.336 1.536.24.224.528.336.864.336Z" fill="#292929"/></symbol><symbol id="vk"><g clip-path="url('#clip0_2_1215')"><path d="M23.87 17.526c0-.066-.066-.13-.066-.13-.393-.72-1.243-1.701-2.42-2.748-.523-.523-.85-.85-.98-1.046-.262-.327-.328-.654-.197-.98.13-.262.458-.786 1.112-1.636.327-.457.588-.784.785-1.046C23.541 8.044 24.195 6.801 24 6.278l-.065-.13c-.066-.197-.197-.262-.393-.328-.196-.065-.458-.065-.785 0H18.9c-.13 0-.13.066-.13.066h-.066l-.065.065c-.066 0-.066.065-.131.13-.066.066-.066.132-.131.197-.392.98-.85 1.962-1.308 2.812-.327.523-.588.98-.85 1.373s-.458.654-.654.85l-.458.458c-.13.13-.261.13-.327.13-.065 0-.13-.065-.196-.065-.13-.065-.196-.196-.261-.327-.066-.13-.131-.261-.131-.457s-.066-.393-.066-.523V6.8c0-.261 0-.458-.065-.588 0-.131-.065-.262-.13-.393-.066-.13-.132-.261-.262-.327l-.393-.196c-.458-.13-.98-.13-1.7-.13-1.57 0-2.55.065-3.008.326-.196.066-.327.196-.458.393-.13.196-.196.261-.065.327.523.065.85.261 1.046.523l.065.13c.066.131.131.327.197.589.065.262.065.589.13.916a6.279 6.279 0 0 1 0 1.569c-.065.458-.065.785-.13.981-.066.261-.066.458-.197.588l-.13.262c0 .065-.066.065-.066.065-.13.066-.196.066-.327.066-.13 0-.261-.066-.392-.196-.196-.131-.327-.262-.523-.458a3.167 3.167 0 0 1-.589-.85c-.196-.393-.458-.785-.72-1.308l-.195-.392c-.131-.262-.327-.589-.524-1.047-.196-.458-.392-.85-.588-1.308-.066-.13-.196-.261-.327-.392h-.066c-.065-.065-.13-.065-.196-.13-.065 0-.196-.066-.261-.066H.85c-.393 0-.655.13-.786.261v.066C0 6.147 0 6.212 0 6.278c0 .065 0 .196.065.327a54.383 54.383 0 0 0 1.635 3.4c.589 1.112 1.112 1.962 1.504 2.616.458.654.85 1.308 1.308 1.897.458.588.72.98.916 1.111.13.197.261.262.327.393l.327.327c.196.196.523.457.85.72.392.26.785.522 1.308.85a6.105 6.105 0 0 0 1.635.653c.654.196 1.242.262 1.83.196h1.44a1 1 0 0 0 .653-.261l.066-.066c.065-.065.065-.13.065-.261s.066-.196.066-.327c0-.327 0-.654.065-.981.065-.262.13-.523.196-.654.066-.13.196-.262.262-.392.13-.131.196-.131.196-.197.065 0 .065-.065.13-.065.197-.065.459 0 .72.196.262.196.523.458.785.72.261.261.523.588.85.98.327.328.654.654.85.785l.262.131c.196.13.392.196.654.262.261.065.523.13.719.065l3.204-.065c.327 0 .589-.066.72-.131.196-.131.261-.196.327-.327.065-.131.065-.262 0-.458 0 0 0-.13-.066-.196Z" fill="#B3B3B3"/></g><defs><clipPath id="clip0_2_1215"><path fill="#fff" d="M0 0h24v24H0z"/></clipPath></defs></symbol><symbol id="fb"><path d="M24 22.692c0 .72-.589 1.308-1.308 1.308h-6.147v-9.286h3.139l.458-3.597h-3.597V8.828c0-1.046.261-1.765 1.766-1.765h1.896v-3.27c-.327-.065-1.439-.13-2.812-.13-2.746 0-4.643 1.7-4.643 4.773v2.681H9.613v3.597h3.139V24H1.308C.588 24 0 23.411 0 22.692V1.308C0 .588.589 0 1.308 0h21.384C23.412 0 24 .589 24 1.308v21.384Z" fill="#B3B3B3"/></symbol><symbol id="in"><path d="M21.123 0H2.877C1.307 0 0 1.243 0 2.812v18.376C0 22.758 1.308 24 2.877 24h18.246C22.693 24 24 22.758 24 21.188V2.812C24 1.242 22.692 0 21.123 0Zm-3.859 3.728c0-.393.327-.72.72-.72h2.288c.393 0 .72.327.72.72V5.95c0 .392-.327.72-.72.72H18.05a.726.726 0 0 1-.72-.72l-.065-2.223ZM12.033 7.39c2.55 0 4.643 2.027 4.643 4.577s-2.093 4.578-4.643 4.578-4.643-2.027-4.643-4.578c0-2.485 2.092-4.577 4.643-4.577Zm9.678 13.602c0 .392-.327.72-.72.72H3.009a.726.726 0 0 1-.72-.72V9.744h2.944c-.393.588-.524 1.635-.524 2.289 0 3.989 3.27 7.259 7.325 7.259 4.054 0 7.324-3.27 7.324-7.26 0-.653-.065-1.7-.589-2.288h3.009l-.066 11.248Z" fill="#B3B3B3"/></symbol><symbol id="tw"><g clip-path="url('#clip0_2_1214')"><path d="M23.346 2.42c-.98.588-2.027.98-3.139 1.242a4.838 4.838 0 0 0-3.597-1.57c-2.746 0-4.904 2.29-4.904 5.036 0 .392.065.785.13 1.177C7.716 8.044 4.12 6.016 1.7 2.943a5.466 5.466 0 0 0-.654 2.55c0 1.766.85 3.27 2.224 4.185-.785 0-1.57-.261-2.224-.653v.13c0 2.42 1.7 4.513 3.924 4.97-.392.131-.85.197-1.308.197-.327 0-.654 0-.915-.066.654 2.027 2.42 3.466 4.577 3.532-1.7 1.373-3.793 2.157-6.147 2.157-.392 0-.785 0-1.177-.065a13.597 13.597 0 0 0 7.52 2.289c9.09 0 13.995-7.717 13.995-14.387v-.654c.98-.72 1.831-1.57 2.485-2.616-.85.393-1.831.654-2.812.785.98-.72 1.766-1.7 2.158-2.877Z" fill="#B3B3B3"/></g><defs><clipPath id="clip0_2_1214"><path fill="#fff" d="M0 0h24v24H0z"/></clipPath></defs></symbol></svg>