<svg width="44" height="44" viewBox="0 0 44 44" fill="none" xmlns="http://www.w3.org/2000/svg">
<path d="M43.6224 0.377541C43.352 0.106917 42.9749 -0.0297695 42.5941 0.00545453C42.4351 0.0198878 38.6411 0.38072 33.4378 2.12723C16.5036 7.34263 5.29627 23.7628 0.084737 35.6415C-0.243304 36.4259 0.419479 37.4759 1.41151 37.3891L7.16777 36.8291L6.60783 42.5849C6.54648 43.4123 7.34974 44.2837 8.35552 43.9116C29.0348 34.4891 41.6483 20.0671 43.9947 1.40583C44.0294 1.0248 43.8931 0.647993 43.6224 0.377541ZM26.9597 28.7069C24.6747 30.7864 22.4223 32.574 20.3403 34.0798V12.1341C22.5228 10.3454 24.7848 8.89566 26.9597 7.72519V28.7069ZM14.3821 37.9794C12.3358 39.1817 10.6086 40.0592 9.38698 40.6383L9.88497 35.5196C9.95886 34.8536 9.34273 34.0111 8.47744 34.1122L3.36042 34.6099C5.08912 30.9423 9.74492 22.4028 17.7627 14.4555V35.8653C16.5271 36.6844 15.3872 37.3889 14.3821 37.9794ZM39.405 9.81278C37.8914 14.2983 34.9521 20.7742 29.5372 26.2415V6.44123C33.0645 4.73768 38.4534 3.21067 41.194 2.80577C40.9314 4.3448 40.4041 6.85172 39.405 9.81278Z" fill="black"/>
</svg>
