<svg width="44" height="31" viewBox="0 0 44 31" fill="none" xmlns="http://www.w3.org/2000/svg">
<path d="M33.2311 19.4117C30.1728 19.4117 27.6849 21.8997 27.6849 24.958C27.6849 28.0162 30.1728 30.5042 33.2311 30.5042C36.2899 30.5042 38.7773 28.0162 38.7773 24.958C38.7773 21.8997 36.2893 19.4117 33.2311 19.4117ZM33.2311 27.7311C31.7017 27.7311 30.458 26.4873 30.458 24.958C30.458 23.4286 31.7017 22.1849 33.2311 22.1849C34.7604 22.1849 36.0042 23.4286 36.0042 24.958C36.0042 26.4874 34.7604 27.7311 33.2311 27.7311Z" fill="black"/>
<path d="M14.2815 19.4117C11.2233 19.4117 8.73529 21.8997 8.73529 24.958C8.73529 28.0162 11.2233 30.5042 14.2815 30.5042C17.3398 30.5042 19.8278 28.0162 19.8278 24.958C19.8278 21.8997 17.3398 19.4117 14.2815 19.4117ZM14.2815 27.7311C12.7522 27.7311 11.5084 26.4873 11.5084 24.958C11.5084 23.4286 12.7522 22.1849 14.2815 22.1849C15.8104 22.1849 17.0546 23.4286 17.0546 24.958C17.0546 26.4874 15.8109 27.7311 14.2815 27.7311Z" fill="black"/>
<path d="M36.966 3.53667C36.7303 3.06848 36.251 2.77312 35.7269 2.77312H28.4243V5.54624H34.8718L38.6474 13.0558L41.1256 11.8097L36.966 3.53667Z" fill="black"/>
<path d="M29.0715 23.6177H18.5799V26.3908H29.0715V23.6177Z" fill="black"/>
<path d="M10.1218 23.6177H5.31515C4.54928 23.6177 3.92864 24.2384 3.92864 25.0042C3.92864 25.7701 4.54936 26.3907 5.31515 26.3907H10.1219C10.8878 26.3907 11.5084 25.77 11.5084 25.0042C11.5084 24.2383 10.8877 23.6177 10.1218 23.6177Z" fill="black"/>
<path d="M43.7088 15.1412L40.9815 11.6285C40.7195 11.2902 40.3151 11.0924 39.8866 11.0924H29.8109V1.38652C29.8109 0.62064 29.1902 0 28.4244 0H5.31515C4.54928 0 3.92864 0.620726 3.92864 1.38652C3.92864 2.1523 4.54936 2.77303 5.31515 2.77303H27.0378V12.4789C27.0378 13.2448 27.6586 13.8654 28.4243 13.8654H39.2076L41.2269 16.4666V23.6175H37.3907C36.6249 23.6175 36.0042 24.2382 36.0042 25.004C36.0042 25.7699 36.6249 26.3906 37.3907 26.3906H42.6134C43.3793 26.3906 43.9999 25.7698 44 25.004V15.9916C44 15.6838 43.8974 15.3843 43.7088 15.1412Z" fill="black"/>
<path d="M10.0294 16.5925H3.65123C2.88535 16.5925 2.26471 17.2132 2.26471 17.979C2.26471 18.7449 2.88544 19.3655 3.65123 19.3655H10.0293C10.7952 19.3655 11.4159 18.7448 11.4159 17.979C11.4159 17.2132 10.7952 16.5925 10.0294 16.5925Z" fill="black"/>
<path d="M13.2185 11.1386H1.38652C0.620727 11.1386 0 11.7594 0 12.5252C0 13.2911 0.620727 13.9117 1.38652 13.9117H13.2185C13.9844 13.9117 14.605 13.291 14.605 12.5252C14.605 11.7594 13.9844 11.1386 13.2185 11.1386Z" fill="black"/>
<path d="M15.4832 5.68486H3.65123C2.88535 5.68486 2.26471 6.30559 2.26471 7.07138C2.26471 7.83725 2.88544 8.45789 3.65123 8.45789H15.4832C16.2491 8.45789 16.8697 7.83717 16.8697 7.07138C16.8698 6.30559 16.2491 5.68486 15.4832 5.68486Z" fill="black"/>
</svg>
