<svg xmlns="http://www.w3.org/2000/svg">

<symbol id="logo">
<path d="M12.5753 18.552C11.5673 18.552 10.6793 18.376 9.91133 18.024C9.14335 17.672 8.55135 17.184 8.13535 16.56C7.71935 15.92 7.51135 15.184 7.51135 14.352C7.51135 13.648 7.65534 13.008 7.94335 12.432C8.24734 11.856 8.64734 11.4 9.14334 11.064C9.65534 10.728 10.2153 10.56 10.8233 10.56C11.3833 10.56 11.8553 10.704 12.2393 10.992C12.6233 11.264 12.8633 11.648 12.9593 12.144C12.1273 12.144 11.4633 12.368 10.9673 12.816C10.4713 13.248 10.2233 13.84 10.2233 14.592C10.2233 15.28 10.4313 15.832 10.8473 16.248C11.2633 16.664 11.8153 16.872 12.5033 16.872C13.3513 16.872 14.0473 16.592 14.5913 16.032C15.1513 15.456 15.4313 14.736 15.4313 13.872C15.4313 13.12 15.2233 12.408 14.8073 11.736C14.3913 11.064 13.7673 10.248 12.9353 9.288C12.0713 8.296 11.4153 7.448 10.9673 6.744C10.5353 6.024 10.3193 5.24 10.3193 4.392C10.3193 3.56 10.5513 2.816 11.0153 2.16C11.4793 1.488 12.1193 0.960001 12.9353 0.576001C13.7513 0.192001 14.6713 0 15.6953 0C16.9913 0 18.0233 0.304001 18.7913 0.912001C19.5753 1.52 19.9673 2.336 19.9673 3.36C19.9673 4.032 19.7993 4.576 19.4633 4.992C19.1273 5.408 18.6873 5.616 18.1433 5.616C17.5353 5.616 17.0473 5.368 16.6793 4.872C16.9833 4.648 17.2233 4.352 17.3993 3.984C17.5753 3.616 17.6633 3.232 17.6633 2.832C17.6633 2.32 17.5113 1.912 17.2073 1.608C16.9033 1.304 16.4873 1.152 15.9593 1.152C15.3193 1.152 14.7913 1.384 14.3753 1.848C13.9753 2.296 13.7753 2.872 13.7753 3.576C13.7753 4.216 13.9593 4.816 14.3273 5.376C14.6953 5.92 15.2713 6.624 16.0553 7.488C16.6953 8.176 17.2073 8.768 17.5913 9.264C17.9913 9.76 18.3273 10.336 18.5993 10.992C18.8873 11.632 19.0313 12.328 19.0313 13.08C19.0313 14.104 18.7433 15.032 18.1673 15.864C17.6073 16.696 16.8313 17.352 15.8393 17.832C14.8633 18.312 13.7753 18.552 12.5753 18.552ZM22.7588 18.264C21.9908 18.264 21.3668 18.024 20.8868 17.544C20.4228 17.064 20.1908 16.344 20.1908 15.384C20.1908 14.984 20.2548 14.464 20.3828 13.824L22.0148 6.12H25.4708L23.7428 14.28C23.6948 14.52 23.6708 14.744 23.6708 14.952C23.6708 15.608 23.9108 15.936 24.3908 15.936C24.8388 15.936 25.2228 15.752 25.5428 15.384C25.8628 15 26.1188 14.48 26.3108 13.824L27.9428 6.12H31.3988L29.6708 14.28C29.6068 14.52 29.5748 14.776 29.5748 15.048C29.5748 15.368 29.6468 15.6 29.7908 15.744C29.9508 15.872 30.2068 15.936 30.5588 15.936C31.0068 15.936 31.3908 15.744 31.7108 15.36C32.0468 14.976 32.3108 14.464 32.5028 13.824H33.5108C32.9188 15.552 32.1828 16.728 31.3028 17.352C30.4388 17.96 29.5668 18.264 28.6868 18.264C27.9988 18.264 27.4468 18.072 27.0308 17.688C26.6308 17.304 26.3908 16.736 26.3108 15.984C25.7668 16.864 25.1908 17.464 24.5828 17.784C23.9908 18.104 23.3828 18.264 22.7588 18.264ZM34.132 6.12H37.588L37.276 7.608C37.82 7.128 38.308 6.76 38.74 6.504C39.188 6.248 39.668 6.12 40.18 6.12C40.692 6.12 41.092 6.296 41.38 6.648C41.684 7 41.836 7.424 41.836 7.92C41.836 8.384 41.684 8.792 41.38 9.144C41.076 9.496 40.652 9.672 40.108 9.672C39.756 9.672 39.516 9.592 39.388 9.432C39.276 9.256 39.188 9.008 39.124 8.688C39.076 8.48 39.028 8.328 38.98 8.232C38.932 8.136 38.844 8.088 38.716 8.088C38.38 8.088 38.092 8.16 37.852 8.304C37.628 8.432 37.332 8.664 36.964 9L35.044 18.12H31.588L34.132 6.12ZM39.3634 24.12C38.6114 24.12 37.9554 23.872 37.3954 23.376C36.8194 22.896 36.5314 22.28 36.5314 21.528C36.5314 20.84 36.7074 20.272 37.0594 19.824C37.4114 19.376 37.8674 19.016 38.4274 18.744C38.9874 18.488 39.7314 18.216 40.6594 17.928L43.5634 4.224C43.8834 2.688 44.4434 1.624 45.2434 1.032C46.0594 0.440001 46.9554 0.144001 47.9314 0.144001C48.6834 0.144001 49.3394 0.392001 49.8994 0.888001C50.4754 1.368 50.7634 1.984 50.7634 2.736C50.7634 3.104 50.7394 3.432 50.6914 3.72H49.5634C49.5954 3.368 49.6114 3.152 49.6114 3.072C49.6114 2.816 49.5234 2.616 49.3474 2.472C49.1714 2.328 48.9554 2.256 48.6994 2.256C48.3634 2.256 48.0354 2.408 47.7154 2.712C47.3954 3 47.1634 3.504 47.0194 4.224L46.6114 6.12H48.3634L48.1954 7.08H46.4194L43.6594 20.04C43.3394 21.592 42.7874 22.656 42.0034 23.232C41.2194 23.824 40.3394 24.12 39.3634 24.12ZM38.8114 21.984C39.4514 21.984 39.9074 21.36 40.1794 20.112L40.4914 18.72C39.6434 19.008 38.9954 19.336 38.5474 19.704C38.0834 20.088 37.8514 20.584 37.8514 21.192C37.8514 21.384 37.9474 21.56 38.1394 21.72C38.3314 21.896 38.5554 21.984 38.8114 21.984ZM3.36 39.264C2.272 39.264 1.44 39 0.864005 38.472C0.288 37.928 0 37.168 0 36.192C0 35.712 0.056 35.256 0.168 34.824L2.73601 22.8L6.28801 22.32L5.13601 27.72C5.58401 27.448 5.952 27.272 6.24001 27.192C6.52801 27.096 6.81601 27.048 7.10401 27.048C8.99201 27.048 9.93603 28.416 9.93603 31.152C9.93603 32.256 9.72001 33.44 9.288 34.704C8.872 35.952 8.168 37.024 7.17601 37.92C6.20001 38.816 4.928 39.264 3.36 39.264ZM4.70401 36.936C5.20001 36.936 5.66401 36.632 6.09601 36.024C6.52801 35.4 6.872 34.632 7.12801 33.72C7.38401 32.792 7.51201 31.904 7.51201 31.056C7.51201 30.416 7.40001 29.872 7.17601 29.424C6.95201 28.976 6.64001 28.752 6.24001 28.752C6.00001 28.752 5.728 28.792 5.42401 28.872C5.136 28.936 4.93601 29.04 4.82401 29.184L3.504 35.28C3.456 35.472 3.432 35.656 3.432 35.832C3.432 36.568 3.85601 36.936 4.70401 36.936ZM14.336 39.216C13.152 39.216 12.216 38.912 11.528 38.304C10.84 37.696 10.496 36.736 10.496 35.424C10.496 34.336 10.72 33.128 11.168 31.8C11.616 30.472 12.336 29.328 13.328 28.368C14.32 27.392 15.568 26.904 17.072 26.904C19.12 26.904 20.144 28.184 20.144 30.744V30.768C20.192 30.784 20.28 30.792 20.408 30.792C20.936 30.792 21.544 30.656 22.232 30.384C22.92 30.096 23.544 29.752 24.104 29.352L24.32 30C23.856 30.496 23.248 30.92 22.496 31.272C21.76 31.608 20.952 31.848 20.072 31.992C19.944 33.448 19.616 34.72 19.088 35.808C18.56 36.896 17.88 37.736 17.048 38.328C16.216 38.92 15.312 39.216 14.336 39.216ZM15.296 37.056C15.68 37.056 16.064 36.84 16.448 36.408C16.832 35.96 17.168 35.36 17.456 34.608C17.744 33.84 17.952 32.992 18.08 32.064C17.648 31.968 17.432 31.632 17.432 31.056C17.432 30.4 17.68 29.968 18.176 29.76C18.144 29.232 18.064 28.872 17.936 28.68C17.808 28.472 17.584 28.368 17.264 28.368C16.736 28.368 16.224 28.752 15.728 29.52C15.232 30.288 14.832 31.208 14.528 32.28C14.224 33.352 14.072 34.296 14.072 35.112C14.072 35.88 14.16 36.4 14.336 36.672C14.512 36.928 14.832 37.056 15.296 37.056ZM24.2589 39.264C23.3469 39.264 22.5869 38.952 21.9789 38.328C21.3709 37.704 21.0669 36.728 21.0669 35.4C21.0669 34.216 21.2989 32.976 21.7629 31.68C22.2429 30.368 22.9469 29.264 23.8749 28.368C24.8189 27.456 25.9389 27 27.2349 27C27.8909 27 28.3789 27.112 28.6989 27.336C29.0189 27.56 29.1789 27.856 29.1789 28.224V28.392L29.4429 27.12H32.8989L31.1709 35.28C31.1069 35.52 31.0749 35.776 31.0749 36.048C31.0749 36.736 31.4029 37.08 32.0589 37.08C32.5069 37.08 32.8909 36.872 33.2109 36.456C33.5469 36.04 33.8109 35.496 34.0029 34.824H35.0109C34.4189 36.552 33.6829 37.728 32.8029 38.352C31.9389 38.96 31.0669 39.264 30.1869 39.264C29.5149 39.264 28.9709 39.08 28.5549 38.712C28.1549 38.328 27.9149 37.776 27.8349 37.056C27.3709 37.712 26.8509 38.248 26.2749 38.664C25.7149 39.064 25.0429 39.264 24.2589 39.264ZM25.8189 36.936C26.2189 36.936 26.6109 36.752 26.9949 36.384C27.3949 36 27.6669 35.48 27.8109 34.824L28.9629 29.4C28.9629 29.192 28.8829 28.992 28.7229 28.8C28.5629 28.592 28.3149 28.488 27.9789 28.488C27.3389 28.488 26.7629 28.864 26.2509 29.616C25.7389 30.352 25.3389 31.248 25.0509 32.304C24.7629 33.344 24.6189 34.264 24.6189 35.064C24.6189 35.864 24.7309 36.376 24.9549 36.6C25.1949 36.824 25.4829 36.936 25.8189 36.936ZM35.6437 27.12H39.0997L38.7877 28.608C39.3317 28.128 39.8197 27.76 40.2517 27.504C40.6997 27.248 41.1797 27.12 41.6917 27.12C42.2037 27.12 42.6037 27.296 42.8917 27.648C43.1957 28 43.3477 28.424 43.3477 28.92C43.3477 29.384 43.1957 29.792 42.8917 30.144C42.5877 30.496 42.1637 30.672 41.6197 30.672C41.2677 30.672 41.0277 30.592 40.8997 30.432C40.7877 30.256 40.6997 30.008 40.6357 29.688C40.5877 29.48 40.5397 29.328 40.4917 29.232C40.4437 29.136 40.3557 29.088 40.2277 29.088C39.8917 29.088 39.6037 29.16 39.3637 29.304C39.1397 29.432 38.8437 29.664 38.4757 30L36.5557 39.12H33.0997L35.6437 27.12ZM45.9152 39.264C45.0032 39.264 44.2432 38.952 43.6352 38.328C43.0272 37.704 42.7232 36.728 42.7232 35.4C42.7232 34.216 42.9552 32.976 43.4192 31.68C43.8992 30.368 44.6032 29.264 45.5312 28.368C46.4752 27.456 47.5952 27 48.8912 27C49.5472 27 50.0352 27.112 50.3552 27.336C50.6752 27.56 50.8352 27.856 50.8352 28.224V28.32L52.0112 22.8L55.5632 22.32L52.8032 35.28C52.7392 35.52 52.7072 35.752 52.7072 35.976C52.7072 36.616 53.0352 36.936 53.6912 36.936C53.9792 36.936 54.2352 36.888 54.4592 36.792C54.3952 37.592 54.1072 38.208 53.5952 38.64C53.0992 39.056 52.5072 39.264 51.8192 39.264C51.1792 39.264 50.6352 39.104 50.1872 38.784C49.7552 38.448 49.4672 37.944 49.3232 37.272C48.3632 38.6 47.2272 39.264 45.9152 39.264ZM47.4752 36.936C47.8272 36.936 48.1792 36.784 48.5312 36.48C48.8992 36.176 49.1712 35.752 49.3472 35.208L49.4432 34.824L50.6192 29.328C50.4752 28.768 50.1472 28.488 49.6352 28.488C48.9952 28.488 48.4192 28.864 47.9072 29.616C47.3952 30.352 46.9952 31.248 46.7072 32.304C46.4192 33.344 46.2752 34.264 46.2752 35.064C46.2752 35.864 46.3872 36.376 46.6112 36.6C46.8512 36.824 47.1392 36.936 47.4752 36.936Z" fill="white"/>
</symbol>

<symbol id="phone">
<g clip-path="url(#clip0_2_1213)">
<path d="M23.9481 18.5956C23.8802 18.3911 23.4483 18.0898 22.6528 17.6924C22.4372 17.5671 22.1301 17.3969 21.7328 17.181C21.335 16.965 20.974 16.7661 20.6504 16.5842C20.3261 16.4024 20.0222 16.2263 19.7384 16.0561C19.693 16.022 19.551 15.9227 19.3123 15.7576C19.0735 15.5929 18.872 15.4707 18.707 15.391C18.5422 15.3118 18.3802 15.2719 18.2211 15.2719C17.9939 15.2719 17.7101 15.4339 17.3693 15.7576C17.0285 16.0816 16.7159 16.4336 16.432 16.8147C16.148 17.1955 15.8468 17.5475 15.5289 17.8714C15.2106 18.1954 14.949 18.3572 14.7447 18.3572C14.6422 18.3572 14.5143 18.3286 14.361 18.2722C14.2078 18.2154 14.0913 18.1668 14.0113 18.1276C13.932 18.0875 13.7959 18.0082 13.6026 17.8885C13.409 17.7692 13.3013 17.7038 13.2786 17.6924C11.7218 16.8286 10.3867 15.8399 9.273 14.7266C8.15962 13.6127 7.17084 12.2777 6.30725 10.7208C6.29591 10.6981 6.23042 10.5901 6.11119 10.397C5.99179 10.2038 5.91221 10.0676 5.87245 9.98781C5.83268 9.90835 5.78439 9.79181 5.72767 9.63844C5.67095 9.48506 5.64248 9.3573 5.64248 9.25491C5.64248 9.05049 5.80445 8.789 6.12833 8.47079C6.45215 8.15276 6.80451 7.8515 7.18505 7.56762C7.56589 7.28374 7.91789 6.97114 8.24183 6.63036C8.56565 6.2894 8.72756 6.00546 8.72756 5.77824C8.72756 5.61925 8.6878 5.45716 8.60834 5.29244C8.52882 5.12737 8.40667 4.92594 8.24183 4.68719C8.07693 4.44856 7.97753 4.30665 7.94338 4.26098C7.77311 3.97709 7.59717 3.67315 7.41514 3.34927C7.23311 3.02545 7.03442 2.66449 6.81842 2.26682C6.6026 1.86932 6.43227 1.5624 6.30713 1.34651C5.90964 0.551227 5.60856 0.119224 5.40397 0.0512838C5.32438 0.0171941 5.20498 0 5.04605 0C4.73907 0 4.33859 0.0567167 3.84432 0.170508C3.34987 0.284121 2.96079 0.403286 2.67667 0.52848C2.10849 0.766989 1.50628 1.46013 0.869857 2.60766C0.290332 3.6756 0.000598907 4.73262 0.000598907 5.77794C0.000598907 6.08451 0.0204796 6.38278 0.060241 6.67281C0.100002 6.96254 0.171047 7.28929 0.273436 7.65299C0.375645 8.01658 0.458093 8.28667 0.520422 8.46255C0.58281 8.63855 0.699289 8.95384 0.869797 9.40852C1.04007 9.86309 1.14245 10.1414 1.17654 10.2436C1.57422 11.3573 2.0458 12.3515 2.59118 13.2266C3.4885 14.681 4.71304 16.1841 6.26409 17.7353C7.8152 19.2864 9.31802 20.5108 10.7726 21.4085C11.6475 21.9538 12.6421 22.4254 13.7556 22.8233C13.8579 22.8573 14.1362 22.9594 14.5906 23.1303C15.0451 23.3007 15.3605 23.4171 15.5365 23.4796C15.7126 23.5422 15.9828 23.6247 16.346 23.7271C16.7101 23.8295 17.0366 23.9005 17.3263 23.9406C17.6162 23.9798 17.9145 24.0001 18.2212 24.0001C19.2664 24.0001 20.3235 23.7101 21.3916 23.1307C22.539 22.4945 23.232 21.8922 23.4706 21.3236C23.5961 21.0397 23.715 20.6506 23.8286 20.1561C23.9426 19.6619 23.9992 19.2615 23.9992 18.9545C23.9995 18.795 23.9824 18.6759 23.9481 18.5956Z" />
</g>
<defs>
<clipPath id="clip0_2_1213">
<rect width="24" height="24" fill="white"/>
</clipPath>
</defs>
</symbol>

<symbol id="gamburger">
<g clip-path="url(#clip0_2_1091)">
<path d="M24 0H2.06335C0.868778 0 0 0.868778 0 2.06335V2.38914C0 3.47511 0.868778 4.34389 2.06335 4.34389H24.1086C25.1946 4.34389 26.1719 3.47511 26.1719 2.28054V2.06335C26.0633 0.868778 25.1946 0 24 0Z" fill="#0D0E0F"/>
<path d="M24 9.77374H2.06335C0.868778 9.77374 0 10.7511 0 11.8371V12.1629C0 13.2489 0.868778 14.2262 2.06335 14.2262H24.1086C25.1946 14.2262 26.1719 13.3575 26.1719 12.1629V11.8371C26.0633 10.7511 25.1946 9.77374 24 9.77374Z" fill="#0D0E0F"/>
<path d="M24 19.5475H2.06335C0.977376 19.5475 0 20.4163 0 21.6109V21.9367C0 23.0226 0.868778 24 2.06335 24H24.1086C25.1946 24 26.1719 23.1312 26.1719 21.9367V21.6109C26.0633 20.5249 25.1946 19.5475 24 19.5475Z" fill="#0D0E0F"/>
</g>
<defs>
<clipPath id="clip0_2_1091">
<rect width="26.0633" height="24" fill="white"/>
</clipPath>
</defs>
</symbol>

<symbol id="close">
<g clip-path="url(#clip0_2_1092)">
<path d="M16.2667 12L23.2 5.06667C24.2667 4 24.2667 2.4 23.2 1.46667L22.6667 0.933333C21.6 -0.133333 20 -0.133333 19.0667 0.933333L12 7.73333L5.06667 0.8C4 -0.266667 2.4 -0.266667 1.33333 0.8L0.8 1.33333C-0.266667 2.4 -0.266667 4 0.8 4.93333L7.73333 12L0.8 18.9333C-0.266667 20 -0.266667 21.6 0.8 22.5333L1.33333 23.2C2.4 24.2667 4 24.2667 4.93333 23.2L12 16.2667L18.9333 23.2C20 24.2667 21.6 24.2667 22.5333 23.2L23.0667 22.6667C24.1333 21.6 24.1333 20 23.0667 19.0667L16.2667 12Z"/>
</g>
<defs>
<clipPath id="clip0_2_1092">
<rect width="24" height="24" fill="white"/>
</clipPath>
</defs>
</symbol>

<symbol id="main-2">
<path d="M47.6224 4.37754C47.352 4.10692 46.9749 3.97023 46.5941 4.00545C46.4351 4.01989 42.6411 4.38072 37.4378 6.12723C20.5036 11.3426 9.29627 27.7628 4.08474 39.6415C3.7567 40.4259 4.41948 41.4759 5.41151 41.3891L11.1678 40.8291L10.6078 46.5849C10.5465 47.4123 11.3497 48.2837 12.3555 47.9116C33.0348 38.4891 45.6483 24.0671 47.9947 5.40583C48.0294 5.0248 47.8931 4.64799 47.6224 4.37754ZM30.9597 32.7069C28.6747 34.7864 26.4223 36.574 24.3403 38.0798V16.1341C26.5228 14.3454 28.7848 12.8957 30.9597 11.7252V32.7069ZM18.3821 41.9794C16.3358 43.1817 14.6086 44.0592 13.387 44.6383L13.885 39.5196C13.9589 38.8536 13.3427 38.0111 12.4774 38.1122L7.36042 38.6099C9.08912 34.9423 13.7449 26.4028 21.7627 18.4555V39.8653C20.5271 40.6844 19.3872 41.3889 18.3821 41.9794ZM43.405 13.8128C41.8914 18.2983 38.9521 24.7742 33.5372 30.2415V10.4412C37.0645 8.73768 42.4534 7.21067 45.194 6.80577C44.9314 8.3448 44.4041 10.8517 43.405 13.8128Z"/>
</symbol>

<symbol id="main-3">
<g clip-path="url(#clip0_2_1032)">
<path d="M46.7109 19.5547H37.4859C37.4867 19.5466 37.4881 19.5386 37.489 19.5305C38.5624 18.6069 39.4204 17.5102 40.0436 16.264C40.2435 15.8644 40.2221 15.3899 39.9873 15.0099C39.7523 14.6298 39.3374 14.3984 38.8906 14.3984H36.9008C36.4691 13.1771 35.8389 12.0492 35.0187 11.0309C35.1239 9.62022 34.955 8.23997 34.5149 6.9198C34.3737 6.49596 34.023 6.1755 33.5882 6.07289C33.1533 5.97019 32.6965 6.10013 32.3805 6.41595L30.9706 7.82584C29.8057 7.26897 28.5654 6.91748 27.2672 6.77663C26.2944 5.63065 25.1731 4.72358 23.9983 4.13612C23.5987 3.93631 23.1243 3.95762 22.7441 4.19249C22.3642 4.42736 22.1328 4.84226 22.1328 5.28905V7.36479C20.9116 7.79645 19.7835 8.4268 18.7653 9.2469C17.3548 9.1418 15.9743 9.31067 14.6544 9.75076C14.2305 9.89204 13.9101 10.2427 13.8074 10.6775C13.7048 11.1123 13.8346 11.5693 14.1505 11.8851L15.5601 13.2948C15.0029 14.4606 14.6513 15.7017 14.5107 17.0009C13.647 17.7441 12.9231 18.5995 12.3484 19.5548H5.28906C4.57716 19.5548 4 20.1319 4 20.8438V26.0001C4 26.712 4.57716 27.2891 5.28906 27.2891H6.66406V46.711C6.66406 47.4229 7.24122 48.0001 7.95312 48.0001H13.1094C13.8213 48.0001 14.3984 47.4229 14.3984 46.711V42.3416L26 37.701L37.6016 42.3416V46.7109C37.6016 47.4228 38.1787 48 38.8906 48H44.0469C44.7588 48 45.3359 47.4228 45.3359 46.7109V27.2891H46.7109C47.4228 27.2891 48 26.7119 48 26V20.8437C48 20.1318 47.4228 19.5547 46.7109 19.5547ZM16.5384 18.6726C16.8324 18.445 17.0138 18.1015 17.0359 17.7302C17.122 16.2914 17.5325 14.9395 18.2563 13.7122C18.5549 13.2059 18.473 12.5616 18.0574 12.1459L17.7103 11.7988C18.1413 11.7856 18.5778 11.8068 19.0183 11.8626C19.3871 11.9093 19.7584 11.7945 20.0365 11.5475C21.1136 10.5906 22.3613 9.92383 23.745 9.56547C24.3137 9.41835 24.7109 8.90522 24.7109 8.31775V7.80771C25.0177 8.10952 25.3132 8.44287 25.5929 8.80415C25.8206 9.09815 26.1641 9.27948 26.5352 9.30165C27.974 9.38758 29.3259 9.79819 30.5533 10.522C31.0597 10.8205 31.7039 10.7387 32.1195 10.3231L32.4668 9.97591C32.48 10.4069 32.4588 10.8435 32.403 11.284C32.3563 11.6529 32.4711 12.0241 32.7182 12.3022C33.675 13.3793 34.3418 14.627 34.7001 16.0107C34.8474 16.5794 35.3606 16.9766 35.948 16.9766H36.4345C36.1384 17.2916 35.8137 17.586 35.4617 17.8586C35.1677 18.0863 34.9864 18.4298 34.9642 18.8009C34.9491 19.0536 34.923 19.3052 34.8872 19.5548H29.6455C29.7886 19.1513 29.8672 18.7176 29.8672 18.2657C29.8672 16.1333 28.1324 14.3985 26 14.3985C23.8676 14.3985 22.1328 16.1333 22.1328 18.2657C22.1328 18.7176 22.2114 19.1513 22.3545 19.5548H15.5662C15.8624 19.2397 16.1865 18.9451 16.5384 18.6726ZM27.2891 18.2656C27.2891 18.9764 26.7108 19.5547 26 19.5547C25.2892 19.5547 24.7109 18.9764 24.7109 18.2656C24.7109 17.5548 25.2892 16.9766 26 16.9766C26.7108 16.9766 27.2891 17.5548 27.2891 18.2656ZM11.8203 45.4219H9.24219V27.2891H11.8203C11.8203 27.2803 11.8204 40.0167 11.8203 45.4219ZM14.3984 39.5648V33.0603L22.5291 36.3125L14.3984 39.5648ZM37.6016 39.5648L29.4709 36.3125L37.6016 33.0603V39.5648ZM37.6016 30.2835L26 34.9242L14.3984 30.2835V27.2891H37.6016V30.2835ZM42.7578 45.4219H40.1797C40.1797 43.1353 40.1797 30.0464 40.1797 27.2891H42.7578V45.4219ZM45.4219 24.7109H6.57812V22.1328H45.4219V24.7109Z" />
</g>
<defs>
<clipPath id="clip0_2_1032">
<rect width="44" height="44" fill="white" transform="translate(4 4)"/>
</clipPath>
</defs>
</symbol>

<symbol id="main-1">
<path d="M37.2311 30.4117C34.1728 30.4117 31.6849 32.8997 31.6849 35.958C31.6849 39.0162 34.1728 41.5042 37.2311 41.5042C40.2899 41.5042 42.7773 39.0162 42.7773 35.958C42.7773 32.8997 40.2893 30.4117 37.2311 30.4117ZM37.2311 38.7311C35.7017 38.7311 34.458 37.4873 34.458 35.958C34.458 34.4286 35.7017 33.1849 37.2311 33.1849C38.7604 33.1849 40.0042 34.4286 40.0042 35.958C40.0042 37.4874 38.7604 38.7311 37.2311 38.7311Z" />
<path d="M18.2815 30.4117C15.2233 30.4117 12.7353 32.8997 12.7353 35.958C12.7353 39.0162 15.2233 41.5042 18.2815 41.5042C21.3398 41.5042 23.8278 39.0162 23.8278 35.958C23.8278 32.8997 21.3398 30.4117 18.2815 30.4117ZM18.2815 38.7311C16.7522 38.7311 15.5084 37.4873 15.5084 35.958C15.5084 34.4286 16.7522 33.1849 18.2815 33.1849C19.8104 33.1849 21.0546 34.4286 21.0546 35.958C21.0546 37.4874 19.8109 38.7311 18.2815 38.7311Z" />
<path d="M40.966 14.5367C40.7303 14.0685 40.251 13.7731 39.7269 13.7731H32.4243V16.5462H38.8718L42.6474 24.0558L45.1256 22.8097L40.966 14.5367Z" />
<path d="M33.0715 34.6177H22.5799V37.3908H33.0715V34.6177Z" />
<path d="M14.1218 34.6177H9.31515C8.54928 34.6177 7.92864 35.2384 7.92864 36.0042C7.92864 36.7701 8.54936 37.3907 9.31515 37.3907H14.1219C14.8878 37.3907 15.5084 36.77 15.5084 36.0042C15.5084 35.2383 14.8877 34.6177 14.1218 34.6177Z" />
<path d="M47.7088 26.1412L44.9815 22.6285C44.7195 22.2902 44.3151 22.0924 43.8866 22.0924H33.8109V12.3865C33.8109 11.6206 33.1902 11 32.4244 11H9.31515C8.54928 11 7.92864 11.6207 7.92864 12.3865C7.92864 13.1523 8.54936 13.773 9.31515 13.773H31.0378V23.4789C31.0378 24.2448 31.6586 24.8654 32.4243 24.8654H43.2076L45.2269 27.4666V34.6175H41.3907C40.6249 34.6175 40.0042 35.2382 40.0042 36.004C40.0042 36.7699 40.6249 37.3906 41.3907 37.3906H46.6134C47.3793 37.3906 47.9999 36.7698 48 36.004V26.9916C48 26.6838 47.8974 26.3843 47.7088 26.1412Z" />
<path d="M14.0294 27.5925H7.65123C6.88535 27.5925 6.26471 28.2132 6.26471 28.979C6.26471 29.7449 6.88544 30.3655 7.65123 30.3655H14.0293C14.7952 30.3655 15.4159 29.7448 15.4159 28.979C15.4159 28.2132 14.7952 27.5925 14.0294 27.5925Z" />
<path d="M17.2185 22.1386H5.38652C4.62073 22.1386 4 22.7594 4 23.5252C4 24.2911 4.62073 24.9117 5.38652 24.9117H17.2185C17.9844 24.9117 18.605 24.291 18.605 23.5252C18.605 22.7594 17.9844 22.1386 17.2185 22.1386Z" />
<path d="M19.4832 16.6849H7.65123C6.88535 16.6849 6.26471 17.3056 6.26471 18.0714C6.26471 18.8373 6.88544 19.4579 7.65123 19.4579H19.4832C20.2491 19.4579 20.8697 18.8372 20.8697 18.0714C20.8698 17.3056 20.2491 16.6849 19.4832 16.6849Z" />
</symbol>

<symbol id="feat-2">
<path d="M53.8359 60.0312H47.8594V55.7812H50.5223C51.6225 55.7812 52.5145 54.8893 52.5145 53.7891C52.5145 52.6888 51.6225 51.7969 50.5223 51.7969H47.8594V47.8125H53.1785C54.2787 47.8125 55.1707 46.9205 55.1707 45.8203C55.1707 44.7201 54.2787 43.8281 53.1785 43.8281H47.8594V39.8438H50.5223C51.6225 39.8438 52.5145 38.9518 52.5145 37.8516C52.5145 36.7513 51.6225 35.8594 50.5223 35.8594H47.8594V31.875H53.1785C54.2787 31.875 55.1707 30.983 55.1707 29.8828C55.1707 28.7826 54.2787 27.8906 53.1785 27.8906H47.8594V23.9062H50.5223C51.6225 23.9062 52.5145 23.0143 52.5145 21.9141C52.5145 20.8138 51.6225 19.9219 50.5223 19.9219H47.8594V15.9375H53.1785C54.2787 15.9375 55.1707 15.0455 55.1707 13.9453C55.1707 12.8451 54.2787 11.9531 53.1785 11.9531H47.8594V7.96875H50.5223C51.6225 7.96875 52.5145 7.07678 52.5145 5.97656C52.5145 4.87634 51.6225 3.98438 50.5223 3.98438H47.8594V1.99219C47.8594 0.891969 46.9674 0 45.8672 0C44.767 0 43.875 0.891969 43.875 1.99219V60.0312H36.6821L37.7778 42.5H37.9051C39.0053 42.5 39.8973 41.608 39.8973 40.5078V27.2232C39.8973 22.8007 36.9982 19.0441 33.0014 17.7493C34.7475 16.7048 35.9195 14.7956 35.9195 12.6172C35.9195 9.32171 33.2384 6.64062 29.943 6.64062C26.6475 6.64062 23.9664 9.32171 23.9664 12.6172C23.9664 14.7946 25.1373 16.703 26.882 17.7479C22.8831 19.0415 19.982 22.7991 19.982 27.2232V40.5078C19.982 41.608 20.874 42.5 21.9742 42.5H22.0948L23.1905 60.0312H13.9922C12.892 60.0312 12 60.9232 12 62.0234V66.0078C12 67.108 12.892 68 13.9922 68C15.0924 68 15.9844 67.108 15.9844 66.0078V64.0156H51.8438V66.0078C51.8438 67.108 52.7357 68 53.8359 68C54.9362 68 55.8281 67.108 55.8281 66.0078V62.0234C55.8281 60.9232 54.9362 60.0312 53.8359 60.0312ZM29.943 10.625C31.0415 10.625 31.9352 11.5187 31.9352 12.6172C31.9352 13.7157 31.0415 14.6094 29.943 14.6094C28.8445 14.6094 27.9508 13.7157 27.9508 12.6172C27.9508 11.5187 28.8443 10.625 29.943 10.625ZM23.9664 27.2232C23.9664 23.9296 26.646 21.25 29.9398 21.25C33.2334 21.25 35.913 23.9296 35.913 27.2232V38.5156H23.9664V27.2232ZM26.0869 42.5H33.7856L32.6899 60.0312H27.1826L26.0869 42.5Z" />
</symbol>

<symbol id="feat-1">
<path d="M35.875 32.1811V21.8166H40.025C49.9181 21.8166 57.9666 13.768 57.9666 3.875C57.9666 2.8395 57.1271 2 56.0916 2H50.0646C43.0369 2 36.9411 6.06275 33.9996 11.9622C31.0576 6.06262 24.9615 2 17.9334 2H11.9084C10.8729 2 10.0334 2.8395 10.0334 3.875C10.0334 13.7681 18.082 21.8166 27.975 21.8166H32.125V32.1811C15.3249 33.1521 2 47.0815 2 64.125C2 65.1605 2.8395 66 3.875 66H64.125C65.1605 66 66 65.1605 66 64.125C66 47.0815 52.6751 33.1521 35.875 32.1811V32.1811ZM50.0646 5.75H54.0933C53.1726 12.692 47.2145 18.0666 40.025 18.0666H35.9981C36.9174 11.1243 42.8751 5.75 50.0646 5.75V5.75ZM27.975 18.0666C20.7854 18.0666 14.8272 12.692 13.9067 5.75H17.9334C25.123 5.75 31.0811 11.1246 32.0016 18.0666H27.975ZM5.8105 62.25C6.7385 47.9209 17.2449 40.245 24.0917 37.6657V42.3778C24.0917 42.9499 23.8689 43.4879 23.4641 43.8926L17.4391 49.9176C15.1423 52.2145 15.1423 55.9519 17.4391 58.2487L21.44 62.25H5.8105ZM26.7434 62.25L20.0906 55.5973C19.2543 54.7609 19.2534 53.4065 20.0906 52.5692L26.1156 46.5444C27.2288 45.4314 27.8417 43.9516 27.8417 42.3778V36.5489C29.8536 36.1014 31.9191 35.875 34 35.875C38.9144 35.875 43.6772 37.1336 47.9062 39.5337L37.5223 49.9178C35.2226 52.2174 35.2178 55.9449 37.5223 58.2489L41.5234 62.25H26.7434ZM46.8266 62.25L40.1739 55.5971C39.3382 54.7616 39.3371 53.4062 40.1739 52.5692L51.1001 41.6431C57.6121 46.6034 61.6477 54.1131 62.1879 62.2499H46.8266V62.25Z" />
</symbol>

<symbol id="feat-3">
<path d="M67.58 64.7842C67.4752 64.6494 64.9503 61.4478 59.6006 58.2906C56.9903 56.75 53.3914 55.0512 48.7861 53.8092C49.7611 50.514 50.8711 45.7687 51.3499 40.1027C51.8914 33.6964 51.5072 27.4363 50.2076 21.4964C48.5791 14.0532 45.5041 7.10361 41.0679 0.840703C40.6944 0.313437 40.0884 0 39.4422 0C38.7961 0 38.1901 0.313305 37.8166 0.840703C36.4181 2.81509 35.155 4.85802 34.0297 6.96283C32.9044 4.85788 31.6415 2.81509 30.2428 0.840703C29.8694 0.313437 29.2633 0 28.6172 0C27.9711 0 27.3651 0.313305 26.9916 0.840703C22.5554 7.10348 19.4804 14.053 17.8518 21.4965C16.5523 27.4364 16.168 33.6964 16.7095 40.1029C17.2019 45.9283 18.3614 50.7807 19.3554 54.0843C15.1095 55.2884 11.6855 56.8436 9.12061 58.2632C3.46718 61.3926 0.622734 64.5502 0.504398 64.683C-0.0175553 65.2692 -0.146649 66.1072 0.174492 66.8232C0.495632 67.5391 1.20737 68 1.99216 68H66.0078C66.7688 68 67.4633 67.5664 67.7976 66.8828C68.1317 66.1992 68.0474 65.3849 67.58 64.7842ZM20.9628 26.9581L34.3264 17.8771C34.7222 19.1401 35.0719 20.4201 35.3722 21.7176L20.5296 31.8038C20.6034 30.2441 20.7425 28.6243 20.9628 26.9581ZM21.9738 21.4539C23.1906 16.3163 25.2642 10.9068 28.6188 5.57441C30.3273 8.279 31.7667 11.0904 32.9405 14.0015L21.9738 21.4539ZM20.4961 36.6438L36.179 25.9865C36.8241 30.3597 36.9548 34.9112 36.5666 39.6274C36.1538 44.6411 35.1975 48.9293 34.323 52.0159C30.2386 52.0394 26.5399 52.4701 23.2384 53.1424C22.2965 50.0504 21.1538 45.3767 20.6797 39.7673C20.5957 38.7749 20.5323 37.7314 20.4961 36.6438ZM34.6735 55.9971C45.4742 55.9971 52.9886 59.0514 57.3905 61.6136C58.8019 62.4352 59.9934 63.2602 60.9717 64.0156H7.43402C12.1776 60.6701 21.2129 55.9971 34.6735 55.9971ZM39.444 5.57441C45.7576 15.5693 48.4302 27.0098 47.3915 39.6274C46.9364 45.1541 45.8212 49.7995 44.8829 52.9247C42.8862 52.5547 40.7358 52.2795 38.4326 52.133C39.2726 48.9847 40.1222 44.8692 40.5251 40.1029C41.0665 33.6965 40.6823 27.4364 39.3827 21.4965C38.6317 18.0636 37.5721 14.7359 36.214 11.532C37.1285 9.54749 38.1975 7.55557 39.444 5.57441Z" />
</symbol>

<symbol id='prev'>
<path d="M19 34L6.91422 21.9142C6.13317 21.1332 6.13317 19.8668 6.91421 19.0858L19 7" stroke="black" stroke-width="2" stroke-linecap="round"/>
</symbol>

<symbol id='next'>
<path d="M5 6L17.0858 18.0858C17.8668 18.8668 17.8668 20.1332 17.0858 20.9142L5 33" stroke="black" stroke-width="2" stroke-linecap="round"/>
</symbol>

<symbol id='params'>
<rect width="91" height="91" rx="4"/>
<path d="M15.2252 72.1415L15.2953 75H13.4036L13.4877 72.3097L13.4176 67.4475H10.1668L10.0968 72.1415L10.1668 75H8.27521L8.35929 72.3097L8.27521 65.9762H15.3233L15.2252 72.1415ZM24.7654 75H22.8317L22.6075 73.823L22.3693 72.9823L20.6038 72.9402L19.0484 72.9823L18.8102 73.7249L18.572 75H16.6944L19.749 65.9762H22.005L24.7654 75ZM21.9629 71.511L20.898 67.7558H20.7719L19.5388 71.511L20.7439 71.539L21.9629 71.511ZM29.6481 65.9622C30.5916 65.9622 31.3156 66.2004 31.82 66.6768C32.3338 67.1532 32.5907 67.8352 32.5907 68.7226C32.5907 69.4045 32.4412 70.0024 32.1423 70.5161C31.8433 71.0206 31.4136 71.4129 30.8532 71.6931C30.302 71.9734 29.6528 72.1135 28.9055 72.1135H28.0087V72.1415L28.0928 75H26.1871L26.2852 72.3097L26.1871 65.9762L29.6481 65.9622ZM29.3258 70.7263C30.1853 70.4834 30.615 69.8716 30.615 68.8907C30.615 68.3863 30.4842 68.0126 30.2226 67.7698C29.9704 67.5175 29.5781 67.3821 29.0456 67.3634L28.0928 67.4195L28.0367 70.6703L29.3258 70.7263ZM40.4605 75H38.5269L38.3027 73.823L38.0645 72.9823L36.2989 72.9402L34.7436 72.9823L34.5054 73.7249L34.2672 75H32.3896L35.4442 65.9762H37.7001L40.4605 75ZM37.6581 71.511L36.5932 67.7558H36.4671L35.234 71.511L36.4391 71.539L37.6581 71.511ZM51.3545 75H49.673L49.5329 72.2676L49.2106 68.7926H49.0705L47.0528 74.0472H45.5815L43.7459 68.7926H43.6198L43.2695 72.0855L43.0733 75H41.476L42.3867 65.9762H44.5726L44.9369 67.3074L46.3662 71.5811H46.4923L47.9916 67.3074L48.3979 65.9762H50.5418L51.3545 75ZM59.0515 73.4306L59.1636 73.5848L59.0375 75H53.3766L53.4747 72.3097L53.3766 65.9762H59.0935L59.2056 66.1304L59.0655 67.5456L56.9076 67.4755L55.2822 67.4895L55.2402 69.6614L56.7955 69.6894L58.2668 69.6474L58.3789 69.7875L58.2528 71.2027L56.6554 71.1607L55.2122 71.1747L55.1982 72.1415L55.2402 73.5007L56.8236 73.5147L59.0515 73.4306ZM66.6029 66.1304L66.4908 67.5456L64.7953 67.4615H64.2349L64.1648 72.1415L64.2489 75H62.3432L62.4413 72.3097L62.3713 67.4615H61.8108L60.0873 67.5456L59.9612 67.3914L60.0873 65.9762H66.4908L66.6029 66.1304ZM71.356 65.9622C72.2994 65.9622 73.0234 66.2004 73.5278 66.6768C74.0416 67.1532 74.2985 67.8352 74.2985 68.7226C74.2985 69.4045 74.149 70.0024 73.8501 70.5161C73.5512 71.0206 73.1215 71.4129 72.561 71.6931C72.0098 71.9734 71.3606 72.1135 70.6133 72.1135H69.7165V72.1415L69.8006 75H67.895L67.9931 72.3097L67.895 65.9762L71.356 65.9622ZM71.0337 70.7263C71.8931 70.4834 72.3228 69.8716 72.3228 68.8907C72.3228 68.3863 72.192 68.0126 71.9304 67.7698C71.6782 67.5175 71.2859 67.3821 70.7534 67.3634L69.8006 67.4195L69.7446 70.6703L71.0337 70.7263ZM79.1517 69.4372C79.9924 69.4372 80.637 69.6521 81.0854 70.0818C81.5338 70.5021 81.7579 71.1093 81.7579 71.9033C81.7579 72.8748 81.4357 73.6362 80.7911 74.1873C80.1466 74.7291 79.2498 75 78.1008 75H75.6066L75.7047 72.3237L75.6066 65.9762H77.5263L77.4702 69.4372H79.1517ZM84.6304 72.1415L84.7145 75H82.8088L82.9069 72.3097L82.8088 65.9762H84.7425L84.6304 72.1415ZM78.6052 73.6829C78.9882 73.6081 79.2825 73.44 79.488 73.1784C79.6935 72.9075 79.7963 72.5666 79.7963 72.1555C79.7963 71.7165 79.6842 71.3802 79.46 71.1467C79.2451 70.9038 78.9322 70.7824 78.5212 70.7824L77.4562 70.8104L77.4282 72.1415L77.4702 73.6268L78.6052 73.6829Z" fill="white"/>
<g clip-path="url(#clip0_2_30)">
<path d="M45.2132 17.3261L38.5439 23.9954C38.1091 24.4301 38.1091 25.1351 38.5439 25.5698L41.693 28.7189C41.9565 28.9824 42.3191 29.0865 42.6606 29.0304V32.6602H39.0307C39.088 32.3124 38.9769 31.9502 38.7194 31.6927L35.5703 28.5436C35.1359 28.1091 34.4306 28.1088 33.9959 28.5436L27.3266 35.2128C26.8918 35.6475 26.8918 36.3525 27.3266 36.7873L33.9959 43.4566C34.4303 43.891 35.1356 43.8913 35.5703 43.4566L38.7194 40.3074C38.9771 40.0497 39.0879 39.6874 39.0307 39.3399H42.6605V42.9697C42.3191 42.9136 41.9563 43.0177 41.6929 43.2811L38.5438 46.4302C38.1091 46.8649 38.1091 47.5698 38.5438 48.0046L45.2131 54.6739C45.6479 55.1087 46.3528 55.1087 46.7875 54.6739L53.4568 48.0046C53.8912 47.5701 53.8916 46.8649 53.4568 46.4302L50.3077 43.2811C50.0443 43.0177 49.6816 42.9136 49.3402 42.9697V39.3399H52.9701C52.9128 39.6878 53.0239 40.05 53.2815 40.3074L56.4306 43.4566C56.865 43.8911 57.5703 43.8914 58.005 43.4566L64.6743 36.7873C65.109 36.3526 65.109 35.6477 64.6743 35.2129L58.005 28.5436C57.5706 28.1091 56.8653 28.1089 56.4306 28.5436L53.2815 31.6928C53.0237 31.9505 52.9129 32.3128 52.9701 32.6603H49.3402V29.0305C49.6816 29.0865 50.0443 28.9825 50.3077 28.7191L53.4568 25.57C53.8914 25.1355 53.8915 24.4303 53.4568 23.9956L46.7875 17.3263C46.3528 16.8914 45.6479 16.8914 45.2132 17.3261ZM49.5206 26.3574L49.0142 25.851C48.3157 25.1523 47.1137 25.6469 47.1137 26.6381V33.7735C47.1137 34.3884 47.6121 34.8868 48.2269 34.8868H55.3623C56.3507 34.8868 56.8502 33.687 56.1495 32.9864L55.6431 32.48L57.2178 30.9052L62.3127 36.0001L57.2179 41.0951L55.6432 39.5203L56.1496 39.0139C56.8484 38.315 56.3532 37.1134 55.3623 37.1134H48.2269C47.6121 37.1134 47.1137 37.6118 47.1137 38.2267V45.362C47.1137 46.3538 48.3162 46.8474 49.0141 46.1492L49.5205 45.6428L51.0952 47.2175L46.0004 52.3124L40.9056 47.2174L42.4802 45.6427L42.9867 46.1491C43.6853 46.848 44.8871 46.3529 44.8871 45.362V38.2267C44.8871 37.6118 44.3886 37.1134 43.7738 37.1134H36.6384C35.6501 37.1134 35.1506 38.3132 35.8513 39.0138L36.3577 39.5202L34.783 41.095L29.6881 36.0001L34.7829 30.9051L36.3576 32.4799L35.8512 32.9863C35.1523 33.6852 35.6475 34.8868 36.6384 34.8868H43.7738C44.3886 34.8868 44.8871 34.3884 44.8871 33.7735V26.6381C44.8871 25.6502 43.6874 25.1502 42.9867 25.851L42.4802 26.3574L40.9056 24.7827L46.0004 19.6877L51.0952 24.7827L49.5206 26.3574Z" fill="white"/>
</g>
<defs>
<clipPath id="clip0_2_30">
<rect width="38" height="38" fill="white" transform="translate(27 17)"/>
</clipPath>
</defs>
</symbol>

<symbol id="length">
<path d="M11.0064 13.0953L11.0072 9L4 16.0096L11.0072 23.0185L11.0064 18.9232L20.992 18.9248V23.0185L28 16.0096L20.992 9V13.0953H11.0064Z" fill="#010002"/>
</symbol>

<symbol id="width">
<path d="M10.4085 17.4798L7.5133 14.5834L7.515 24.4948L17.4259 24.4959L14.5295 21.6007L21.5915 14.541L24.4861 17.4357L24.4856 7.52424L14.5736 7.52311L17.4694 10.4189L10.4085 17.4798Z" fill="#010002"/>
</symbol>

<symbol id="thickness">
<path d="M26.5938 9.48438H5.45312C4.6765 9.48438 4.04688 10.114 4.04688 10.8906C4.04688 11.6673 4.6765 12.2969 5.45312 12.2969H26.5938C27.3704 12.2969 28 11.6673 28 10.8906C28 10.114 27.3704 9.48438 26.5938 9.48438Z" />
<path d="M27.0625 4H4.9375C4.41972 4 4 4.41972 4 4.9375C4 5.45528 4.41972 5.875 4.9375 5.875H27.0625C27.5803 5.875 28 5.45528 28 4.9375C28 4.41972 27.5803 4 27.0625 4Z" />
<path d="M25.6562 23.3125H6.39062C5.09622 23.3125 4.04688 24.3618 4.04688 25.6562C4.04688 26.9507 5.09622 28 6.39062 28H25.6562C26.9507 28 28 26.9507 28 25.6562C28 24.3618 26.9507 23.3125 25.6562 23.3125Z" />
<path d="M26.125 15.9062H5.92188C4.88636 15.9062 4.04688 16.7457 4.04688 17.7812C4.04688 18.8168 4.88636 19.6562 5.92188 19.6562H26.125C27.1605 19.6562 28 18.8168 28 17.7812C28 16.7457 27.1605 15.9062 26.125 15.9062Z" />
</symbol>

<symbol id="life-time">
<path d="M24 26H23V22.727C23 21.099 22.307 19.541 21.097 18.453L19.404 16.93C19.137 16.689 18.99 16.359 18.99 16C18.99 15.641 19.137 15.311 19.404 15.071L21.097 13.548C22.307 12.458 23 10.901 23 9.273V6H24C24.553 6 25 5.552 25 5C25 4.448 24.553 4 24 4H8C7.447 4 7 4.448 7 5C7 5.552 7.447 6 8 6H9V9.273C9 10.901 9.693 12.459 10.903 13.547L12.596 15.07C12.863 15.311 13.01 15.641 13.01 16C13.01 16.359 12.863 16.689 12.596 16.929L10.903 18.452C9.693 19.542 9 21.099 9 22.727V26H8C7.447 26 7 26.448 7 27C7 27.552 7.447 28 8 28H24C24.553 28 25 27.552 25 27C25 26.448 24.553 26 24 26ZM12 22.829C12 22.094 12.286 21.404 12.806 20.884L15.47 18.22C15.763 17.927 16.238 17.927 16.531 18.22L19.195 20.884C19.715 21.404 20.001 22.094 20.001 22.829V26H12V22.829Z" />
</symbol>

<symbol id="weight">
<path d="M26.983 25.137L24.8878 12.6207C24.6908 11.4406 23.6687 10.5781 22.4724 10.5781H19.3245C19.6937 9.93501 19.9047 9.19002 19.9047 8.39667C19.9047 5.97245 17.9328 4 15.5081 4C13.0838 4 11.1114 5.97245 11.1114 8.39667C11.1114 9.19002 11.3225 9.93501 11.6916 10.5781H8.54367C7.34689 10.5781 6.32532 11.4416 6.12828 12.6218L4.03366 25.1396C3.91461 25.8492 4.11476 26.5797 4.58006 27.1287C5.04588 27.6782 5.72901 28 6.44957 28H24.5686C25.2892 28 25.9723 27.6782 26.4381 27.1287C26.9029 26.5786 27.1025 25.8472 26.983 25.137ZM15.5086 6.56148C16.5203 6.56148 17.3438 7.38498 17.3438 8.39719C17.3438 9.40941 16.5203 10.2324 15.5086 10.2324C14.4964 10.2324 13.6729 9.40889 13.6729 8.39667C13.6729 7.38446 14.4964 6.56148 15.5086 6.56148Z" />
</symbol>

<symbol id="checkmark">
<g clip-path="url(#clip0_2_1093)">
<path d="M28.4138 1.65507C26.4828 -0.551832 23.1724 -0.551832 21.2414 1.3792L11.0345 11.5861L8.82758 9.3792C6.89655 7.44817 3.5862 7.44817 1.65517 9.3792H1.37931C-0.551726 11.3102 -0.551726 14.6206 1.37931 16.5516L7.44827 22.6206C8.55172 23.724 9.93103 23.9999 11.0345 23.9999C12.4138 23.9999 13.5172 23.4482 14.6207 22.6206L28.4138 8.82748C30.3448 6.89645 30.3448 3.5861 28.4138 1.65507Z" fill="#0D0E0F"/>
</g>
<defs>
<clipPath id="clip0_2_1093">
<rect width="30.069" height="24" fill="white"/>
</clipPath>
</defs>
</symbol>

<symbol id="marker">
<path d="M38 0C24.7826 0 0 10 0 38.3333C0 66.6667 38 95 38 95C38 95 76 66.6667 76 38.3333C76 10 51.2174 0 38 0Z" fill="#FEDB3F"/>
<path d="M22.7667 37.432C21.7587 37.432 20.8707 37.256 20.1027 36.904C19.3347 36.552 18.7427 36.064 18.3267 35.44C17.9107 34.8 17.7027 34.064 17.7027 33.232C17.7027 32.528 17.8467 31.888 18.1347 31.312C18.4387 30.736 18.8387 30.28 19.3347 29.944C19.8467 29.608 20.4067 29.44 21.0147 29.44C21.5747 29.44 22.0467 29.584 22.4307 29.872C22.8147 30.144 23.0547 30.528 23.1507 31.024C22.3187 31.024 21.6547 31.248 21.1587 31.696C20.6627 32.128 20.4147 32.72 20.4147 33.472C20.4147 34.16 20.6227 34.712 21.0387 35.128C21.4547 35.544 22.0067 35.752 22.6947 35.752C23.5427 35.752 24.2387 35.472 24.7827 34.912C25.3427 34.336 25.6227 33.616 25.6227 32.752C25.6227 32 25.4147 31.288 24.9987 30.616C24.5827 29.944 23.9587 29.128 23.1267 28.168C22.2627 27.176 21.6067 26.328 21.1587 25.624C20.7267 24.904 20.5107 24.12 20.5107 23.272C20.5107 22.44 20.7427 21.696 21.2067 21.04C21.6707 20.368 22.3107 19.84 23.1267 19.456C23.9427 19.072 24.8627 18.88 25.8867 18.88C27.1827 18.88 28.2147 19.184 28.9827 19.792C29.7667 20.4 30.1587 21.216 30.1587 22.24C30.1587 22.912 29.9907 23.456 29.6547 23.872C29.3187 24.288 28.8787 24.496 28.3347 24.496C27.7267 24.496 27.2387 24.248 26.8707 23.752C27.1747 23.528 27.4147 23.232 27.5907 22.864C27.7667 22.496 27.8547 22.112 27.8547 21.712C27.8547 21.2 27.7027 20.792 27.3987 20.488C27.0947 20.184 26.6787 20.032 26.1507 20.032C25.5107 20.032 24.9827 20.264 24.5667 20.728C24.1667 21.176 23.9667 21.752 23.9667 22.456C23.9667 23.096 24.1507 23.696 24.5187 24.256C24.8867 24.8 25.4627 25.504 26.2467 26.368C26.8867 27.056 27.3987 27.648 27.7827 28.144C28.1827 28.64 28.5187 29.216 28.7907 29.872C29.0787 30.512 29.2227 31.208 29.2227 31.96C29.2227 32.984 28.9347 33.912 28.3587 34.744C27.7987 35.576 27.0227 36.232 26.0307 36.712C25.0547 37.192 23.9667 37.432 22.7667 37.432ZM32.9502 37.144C32.1822 37.144 31.5582 36.904 31.0782 36.424C30.6142 35.944 30.3822 35.224 30.3822 34.264C30.3822 33.864 30.4462 33.344 30.5742 32.704L32.2062 25H35.6622L33.9342 33.16C33.8862 33.4 33.8622 33.624 33.8622 33.832C33.8622 34.488 34.1022 34.816 34.5822 34.816C35.0302 34.816 35.4142 34.632 35.7342 34.264C36.0542 33.88 36.3102 33.36 36.5022 32.704L38.1342 25H41.5902L39.8622 33.16C39.7982 33.4 39.7662 33.656 39.7662 33.928C39.7662 34.248 39.8382 34.48 39.9822 34.624C40.1422 34.752 40.3982 34.816 40.7502 34.816C41.1982 34.816 41.5822 34.624 41.9022 34.24C42.2382 33.856 42.5022 33.344 42.6942 32.704H43.7022C43.1102 34.432 42.3742 35.608 41.4942 36.232C40.6302 36.84 39.7582 37.144 38.8782 37.144C38.1902 37.144 37.6382 36.952 37.2222 36.568C36.8222 36.184 36.5822 35.616 36.5022 34.864C35.9582 35.744 35.3822 36.344 34.7742 36.664C34.1822 36.984 33.5742 37.144 32.9502 37.144ZM44.3234 25H47.7794L47.4674 26.488C48.0114 26.008 48.4994 25.64 48.9314 25.384C49.3794 25.128 49.8594 25 50.3714 25C50.8834 25 51.2834 25.176 51.5714 25.528C51.8754 25.88 52.0274 26.304 52.0274 26.8C52.0274 27.264 51.8754 27.672 51.5714 28.024C51.2674 28.376 50.8434 28.552 50.2994 28.552C49.9474 28.552 49.7074 28.472 49.5794 28.312C49.4674 28.136 49.3794 27.888 49.3154 27.568C49.2674 27.36 49.2194 27.208 49.1714 27.112C49.1234 27.016 49.0354 26.968 48.9074 26.968C48.5714 26.968 48.2834 27.04 48.0434 27.184C47.8194 27.312 47.5234 27.544 47.1554 27.88L45.2354 37H41.7794L44.3234 25ZM49.5548 43C48.8028 43 48.1468 42.752 47.5868 42.256C47.0108 41.776 46.7228 41.16 46.7228 40.408C46.7228 39.72 46.8988 39.152 47.2508 38.704C47.6028 38.256 48.0588 37.896 48.6188 37.624C49.1788 37.368 49.9228 37.096 50.8508 36.808L53.7548 23.104C54.0748 21.568 54.6348 20.504 55.4348 19.912C56.2508 19.32 57.1468 19.024 58.1228 19.024C58.8748 19.024 59.5308 19.272 60.0908 19.768C60.6668 20.248 60.9548 20.864 60.9548 21.616C60.9548 21.984 60.9308 22.312 60.8828 22.6H59.7548C59.7868 22.248 59.8028 22.032 59.8028 21.952C59.8028 21.696 59.7148 21.496 59.5388 21.352C59.3628 21.208 59.1468 21.136 58.8908 21.136C58.5548 21.136 58.2268 21.288 57.9068 21.592C57.5868 21.88 57.3548 22.384 57.2108 23.104L56.8028 25H58.5548L58.3868 25.96H56.6108L53.8508 38.92C53.5308 40.472 52.9788 41.536 52.1948 42.112C51.4108 42.704 50.5308 43 49.5548 43ZM49.0028 40.864C49.6428 40.864 50.0988 40.24 50.3708 38.992L50.6828 37.6C49.8348 37.888 49.1868 38.216 48.7388 38.584C48.2748 38.968 48.0428 39.464 48.0428 40.072C48.0428 40.264 48.1388 40.44 48.3308 40.6C48.5228 40.776 48.7468 40.864 49.0028 40.864ZM13.5514 58.144C12.4634 58.144 11.6314 57.88 11.0554 57.352C10.4794 56.808 10.1914 56.048 10.1914 55.072C10.1914 54.592 10.2474 54.136 10.3594 53.704L12.9274 41.68L16.4794 41.2L15.3274 46.6C15.7754 46.328 16.1434 46.152 16.4314 46.072C16.7194 45.976 17.0074 45.928 17.2954 45.928C19.1834 45.928 20.1274 47.296 20.1274 50.032C20.1274 51.136 19.9114 52.32 19.4794 53.584C19.0634 54.832 18.3594 55.904 17.3674 56.8C16.3914 57.696 15.1194 58.144 13.5514 58.144ZM14.8954 55.816C15.3914 55.816 15.8554 55.512 16.2874 54.904C16.7194 54.28 17.0634 53.512 17.3194 52.6C17.5754 51.672 17.7034 50.784 17.7034 49.936C17.7034 49.296 17.5914 48.752 17.3674 48.304C17.1434 47.856 16.8314 47.632 16.4314 47.632C16.1914 47.632 15.9194 47.672 15.6154 47.752C15.3274 47.816 15.1274 47.92 15.0154 48.064L13.6954 54.16C13.6474 54.352 13.6234 54.536 13.6234 54.712C13.6234 55.448 14.0474 55.816 14.8954 55.816ZM24.5274 58.096C23.3434 58.096 22.4074 57.792 21.7194 57.184C21.0314 56.576 20.6874 55.616 20.6874 54.304C20.6874 53.216 20.9114 52.008 21.3594 50.68C21.8074 49.352 22.5274 48.208 23.5194 47.248C24.5114 46.272 25.7594 45.784 27.2634 45.784C29.3114 45.784 30.3354 47.064 30.3354 49.624V49.648C30.3834 49.664 30.4714 49.672 30.5994 49.672C31.1274 49.672 31.7354 49.536 32.4234 49.264C33.1114 48.976 33.7354 48.632 34.2954 48.232L34.5114 48.88C34.0474 49.376 33.4394 49.8 32.6874 50.152C31.9514 50.488 31.1434 50.728 30.2634 50.872C30.1354 52.328 29.8074 53.6 29.2794 54.688C28.7514 55.776 28.0714 56.616 27.2394 57.208C26.4074 57.8 25.5034 58.096 24.5274 58.096ZM25.4874 55.936C25.8714 55.936 26.2554 55.72 26.6394 55.288C27.0234 54.84 27.3594 54.24 27.6474 53.488C27.9354 52.72 28.1434 51.872 28.2714 50.944C27.8394 50.848 27.6234 50.512 27.6234 49.936C27.6234 49.28 27.8714 48.848 28.3674 48.64C28.3354 48.112 28.2554 47.752 28.1274 47.56C27.9994 47.352 27.7754 47.248 27.4554 47.248C26.9274 47.248 26.4154 47.632 25.9194 48.4C25.4234 49.168 25.0234 50.088 24.7194 51.16C24.4154 52.232 24.2634 53.176 24.2634 53.992C24.2634 54.76 24.3514 55.28 24.5274 55.552C24.7034 55.808 25.0234 55.936 25.4874 55.936ZM34.4503 58.144C33.5383 58.144 32.7783 57.832 32.1703 57.208C31.5623 56.584 31.2583 55.608 31.2583 54.28C31.2583 53.096 31.4903 51.856 31.9543 50.56C32.4343 49.248 33.1383 48.144 34.0663 47.248C35.0103 46.336 36.1303 45.88 37.4263 45.88C38.0823 45.88 38.5703 45.992 38.8903 46.216C39.2103 46.44 39.3703 46.736 39.3703 47.104V47.272L39.6343 46H43.0903L41.3623 54.16C41.2983 54.4 41.2663 54.656 41.2663 54.928C41.2663 55.616 41.5943 55.96 42.2503 55.96C42.6983 55.96 43.0823 55.752 43.4023 55.336C43.7383 54.92 44.0023 54.376 44.1943 53.704H45.2023C44.6103 55.432 43.8743 56.608 42.9943 57.232C42.1303 57.84 41.2583 58.144 40.3783 58.144C39.7063 58.144 39.1623 57.96 38.7463 57.592C38.3463 57.208 38.1063 56.656 38.0263 55.936C37.5623 56.592 37.0423 57.128 36.4663 57.544C35.9063 57.944 35.2343 58.144 34.4503 58.144ZM36.0103 55.816C36.4103 55.816 36.8023 55.632 37.1863 55.264C37.5863 54.88 37.8583 54.36 38.0023 53.704L39.1543 48.28C39.1543 48.072 39.0743 47.872 38.9143 47.68C38.7543 47.472 38.5063 47.368 38.1703 47.368C37.5303 47.368 36.9543 47.744 36.4423 48.496C35.9303 49.232 35.5303 50.128 35.2423 51.184C34.9543 52.224 34.8103 53.144 34.8103 53.944C34.8103 54.744 34.9223 55.256 35.1463 55.48C35.3863 55.704 35.6743 55.816 36.0103 55.816ZM45.8351 46H49.2911L48.9791 47.488C49.5231 47.008 50.0111 46.64 50.4431 46.384C50.8911 46.128 51.3711 46 51.8831 46C52.3951 46 52.7951 46.176 53.0831 46.528C53.3871 46.88 53.5391 47.304 53.5391 47.8C53.5391 48.264 53.3871 48.672 53.0831 49.024C52.7791 49.376 52.3551 49.552 51.8111 49.552C51.4591 49.552 51.2191 49.472 51.0911 49.312C50.9791 49.136 50.8911 48.888 50.8271 48.568C50.7791 48.36 50.7311 48.208 50.6831 48.112C50.6351 48.016 50.5471 47.968 50.4191 47.968C50.0831 47.968 49.7951 48.04 49.5551 48.184C49.3311 48.312 49.0351 48.544 48.6671 48.88L46.7471 58H43.2911L45.8351 46ZM56.1066 58.144C55.1946 58.144 54.4346 57.832 53.8266 57.208C53.2186 56.584 52.9146 55.608 52.9146 54.28C52.9146 53.096 53.1466 51.856 53.6106 50.56C54.0906 49.248 54.7946 48.144 55.7226 47.248C56.6666 46.336 57.7866 45.88 59.0826 45.88C59.7386 45.88 60.2266 45.992 60.5466 46.216C60.8666 46.44 61.0266 46.736 61.0266 47.104V47.2L62.2026 41.68L65.7546 41.2L62.9946 54.16C62.9306 54.4 62.8986 54.632 62.8986 54.856C62.8986 55.496 63.2266 55.816 63.8826 55.816C64.1706 55.816 64.4266 55.768 64.6506 55.672C64.5866 56.472 64.2986 57.088 63.7866 57.52C63.2906 57.936 62.6986 58.144 62.0106 58.144C61.3706 58.144 60.8266 57.984 60.3786 57.664C59.9466 57.328 59.6586 56.824 59.5146 56.152C58.5546 57.48 57.4186 58.144 56.1066 58.144ZM57.6666 55.816C58.0186 55.816 58.3706 55.664 58.7226 55.36C59.0906 55.056 59.3626 54.632 59.5386 54.088L59.6346 53.704L60.8106 48.208C60.6666 47.648 60.3386 47.368 59.8266 47.368C59.1866 47.368 58.6106 47.744 58.0986 48.496C57.5866 49.232 57.1866 50.128 56.8986 51.184C56.6106 52.224 56.4666 53.144 56.4666 53.944C56.4666 54.744 56.5786 55.256 56.8026 55.48C57.0426 55.704 57.3306 55.816 57.6666 55.816Z" fill="#292929"/>
</symbol>

<symbol id="vk">
<g clip-path="url(#clip0_2_1215)">
<path d="M23.8692 17.5259C23.8692 17.4605 23.8038 17.3951 23.8038 17.3951C23.4114 16.6757 22.5613 15.6948 21.3842 14.6485C20.861 14.1253 20.5341 13.7984 20.4033 13.6022C20.1417 13.2752 20.0763 12.9482 20.2071 12.6212C20.3379 12.3597 20.6649 11.8365 21.3188 10.9864C21.6458 10.5286 21.9074 10.2016 22.1035 9.94004C23.5422 8.04358 24.1962 6.80108 24 6.27792L23.9346 6.14712C23.8692 5.95094 23.7384 5.88554 23.5422 5.82015C23.3461 5.75475 23.0845 5.75475 22.7575 5.82015H19.1608C19.0954 5.82015 19.03 5.82015 18.8992 5.82015C18.7684 5.82015 18.7684 5.88554 18.7684 5.88554H18.703L18.6376 5.95094C18.5722 5.95094 18.5722 6.01633 18.5068 6.08173C18.4414 6.14713 18.4414 6.21252 18.376 6.27792C17.9837 7.25884 17.5259 8.23977 17.0681 9.0899C16.7411 9.61306 16.4796 10.0708 16.218 10.4632C15.9564 10.8556 15.7602 11.1172 15.564 11.3133C15.3678 11.5095 15.2371 11.6403 15.1063 11.7711C14.9755 11.9019 14.8447 11.9019 14.7793 11.9019C14.7139 11.9019 14.6485 11.8365 14.5831 11.8365C14.4523 11.7711 14.3869 11.6403 14.3215 11.5095C14.2561 11.3787 14.1907 11.2479 14.1907 11.0518C14.1907 10.8556 14.1253 10.6594 14.1253 10.5286C14.1253 10.3978 14.1253 10.2016 14.1253 9.94004C14.1253 9.67846 14.1253 9.48227 14.1253 9.41688C14.1253 9.0899 14.1253 8.76293 14.1253 8.37056C14.1253 7.97819 14.1253 7.71661 14.1253 7.52042C14.1253 7.32424 14.1253 7.06266 14.1253 6.80108C14.1253 6.5395 14.1253 6.34331 14.0599 6.21252C14.0599 6.08173 13.9946 5.95094 13.9292 5.82015C13.8638 5.68936 13.7984 5.55857 13.6676 5.49317C13.5368 5.42778 13.406 5.36238 13.2752 5.29699C12.8174 5.1662 12.2943 5.1662 11.5749 5.1662C10.0055 5.1662 9.02452 5.23159 8.56676 5.49317C8.37057 5.55857 8.23978 5.68936 8.10899 5.88554C7.9782 6.08173 7.91281 6.14712 8.0436 6.21252C8.56676 6.27792 8.89373 6.4741 9.08992 6.73568L9.15531 6.86647C9.22071 6.99726 9.2861 7.19345 9.3515 7.45503C9.41689 7.71661 9.41689 8.04358 9.48229 8.37056C9.54768 8.95911 9.54768 9.48227 9.48229 9.94004C9.41689 10.3978 9.41689 10.7248 9.3515 10.921C9.2861 11.1825 9.2861 11.3787 9.15531 11.5095C9.08992 11.6403 9.02452 11.7711 9.02452 11.7711C9.02452 11.8365 8.95913 11.8365 8.95913 11.8365C8.82834 11.9019 8.76294 11.9019 8.63215 11.9019C8.50136 11.9019 8.37057 11.8365 8.23978 11.7057C8.0436 11.5749 7.91281 11.4441 7.71662 11.2479C7.52044 11.0518 7.32425 10.7902 7.12807 10.3978C6.93188 10.0054 6.6703 9.61306 6.40872 9.0899L6.21253 8.69753C6.08174 8.43595 5.88556 8.10898 5.68937 7.65121C5.49319 7.19345 5.297 6.80108 5.10082 6.34331C5.03542 6.21252 4.90463 6.08173 4.77384 5.95094H4.70845C4.64305 5.88554 4.57766 5.88554 4.51226 5.82015C4.44687 5.82015 4.31608 5.75475 4.25068 5.75475H0.850136C0.457766 5.75475 0.196185 5.88554 0.0653951 6.01633V6.08173C0 6.14713 0 6.21252 0 6.27792C0 6.34331 0 6.4741 0.0653951 6.60489C0.588556 7.782 1.11172 8.89372 1.70027 10.0054C2.28883 11.1172 2.81199 11.9673 3.20436 12.6212C3.66213 13.2752 4.0545 13.9291 4.51226 14.5177C4.97003 15.1063 5.23161 15.4986 5.42779 15.6294C5.55858 15.8256 5.68937 15.891 5.75477 16.0218L6.08174 16.3488C6.27793 16.5449 6.60491 16.8065 6.93188 17.0681C7.32425 17.3297 7.71662 17.5913 8.23978 17.9182C8.69755 18.1798 9.2861 18.4414 9.87466 18.5722C10.5286 18.7684 11.1172 18.8338 11.7057 18.7684H13.1444C13.406 18.7684 13.6676 18.6376 13.7984 18.5068L13.8638 18.4414C13.9292 18.376 13.9292 18.3106 13.9292 18.1798C13.9292 18.049 13.9946 17.9836 13.9946 17.8528C13.9946 17.5259 13.9946 17.1989 14.0599 16.8719C14.1253 16.6103 14.1907 16.3488 14.2561 16.218C14.3215 16.0872 14.4523 15.9564 14.5177 15.8256C14.6485 15.6948 14.7139 15.6948 14.7139 15.6294C14.7793 15.6294 14.7793 15.564 14.8447 15.564C15.0409 15.4986 15.3025 15.564 15.564 15.7602C15.8256 15.9564 16.0872 16.218 16.3488 16.4795C16.6104 16.7411 16.8719 17.0681 17.1989 17.4605C17.5259 17.7875 17.8529 18.1144 18.049 18.2452L18.3106 18.376C18.5068 18.5068 18.703 18.5722 18.9646 18.6376C19.2262 18.703 19.4877 18.7684 19.6839 18.703L22.8883 18.6376C23.2153 18.6376 23.4768 18.5722 23.6076 18.5068C23.8038 18.376 23.8692 18.3106 23.9346 18.1798C24 18.049 24 17.9182 23.9346 17.7221C23.9346 17.7221 23.9346 17.5913 23.8692 17.5259Z" fill="#B3B3B3"/>
</g>
<defs>
<clipPath id="clip0_2_1215">
<rect width="24" height="24" fill="white"/>
</clipPath>
</defs>
</symbol>

<symbol id="fb">
<path d="M24 22.6921C24 23.4114 23.4114 24 22.6921 24H16.545V14.7139H19.6839L20.1417 11.1172H16.545V8.82834C16.545 7.78202 16.8065 7.06267 18.3106 7.06267H20.2071V3.79292C19.8801 3.72752 18.7684 3.66213 17.3951 3.66213C14.6485 3.66213 12.752 5.3624 12.752 8.43597V11.1172H9.61308V14.7139H12.752V24H1.3079C0.588556 24 0 23.4114 0 22.6921V1.3079C0 0.588556 0.588556 0 1.3079 0H22.6921C23.4114 0 24 0.588556 24 1.3079V22.6921Z" fill="#B3B3B3"/>
</symbol>

<symbol id="in">
<path d="M21.1226 0H2.87738C1.3079 0 0 1.24251 0 2.81199V21.188C0 22.7575 1.3079 24 2.87738 24H21.1226C22.6921 24 24 22.7575 24 21.188V2.81199C24 1.24251 22.6921 0 21.1226 0ZM17.2643 3.72752C17.2643 3.33515 17.5913 3.00817 17.9837 3.00817H20.2725C20.6649 3.00817 20.9918 3.33515 20.9918 3.72752V5.95095C20.9918 6.34332 20.6649 6.6703 20.2725 6.6703H18.049C17.6567 6.6703 17.3297 6.34332 17.3297 5.95095L17.2643 3.72752ZM12.0327 7.38965C14.5831 7.38965 16.6757 9.41689 16.6757 11.9673C16.6757 14.5177 14.5831 16.545 12.0327 16.545C9.48229 16.545 7.38965 14.5177 7.38965 11.9673C7.38965 9.48229 9.48229 7.38965 12.0327 7.38965ZM21.7112 20.9918C21.7112 21.3842 21.3842 21.7112 20.9918 21.7112H3.00817C2.6158 21.7112 2.28883 21.3842 2.28883 20.9918V9.74387H5.23161C4.83924 10.3324 4.70845 11.3787 4.70845 12.0327C4.70845 16.0218 7.9782 19.2916 12.0327 19.2916C16.0872 19.2916 19.3569 16.0218 19.3569 12.0327C19.3569 11.3787 19.2916 10.3324 18.7684 9.74387H21.7766L21.7112 20.9918Z" fill="#B3B3B3"/>
</symbol>

<symbol id="tw">
<g clip-path="url(#clip0_2_1214)">
<path d="M23.346 2.41963C22.3651 3.00818 21.3188 3.40055 20.2071 3.66213C19.2916 2.68121 18.049 2.09265 16.6104 2.09265C13.8638 2.09265 11.7057 4.38148 11.7057 7.12807C11.7057 7.52044 11.7711 7.91281 11.8365 8.30519C7.71662 8.0436 4.11989 6.01636 1.70027 2.94279C1.3079 3.66213 1.04632 4.57766 1.04632 5.4932C1.04632 7.25886 1.89646 8.76295 3.26975 9.67848C2.48501 9.67848 1.70027 9.4169 1.04632 9.02453V9.15532C1.04632 11.5749 2.74659 13.6676 4.97003 14.1253C4.57766 14.2561 4.11989 14.3215 3.66213 14.3215C3.33515 14.3215 3.00817 14.3215 2.74659 14.2561C3.40054 16.2834 5.16621 17.7221 7.32425 17.7875C5.62398 19.1608 3.53133 19.9455 1.17711 19.9455C0.784741 19.9455 0.392371 19.9455 0 19.8801C2.15804 21.3188 4.77384 22.1689 7.52044 22.1689C16.6104 22.1689 21.515 14.4523 21.515 7.78202C21.515 7.58584 21.515 7.32426 21.515 7.12807C22.4959 6.40873 23.346 5.55859 24 4.51227C23.1499 4.90464 22.1689 5.16622 21.188 5.29701C22.1689 4.57767 22.9537 3.59674 23.346 2.41963Z" fill="#B3B3B3"/>
</g>
<defs>
<clipPath id="clip0_2_1214">
<rect width="24" height="24" fill="white"/>
</clipPath>
</defs>
</symbol>
</svg>