<svg xmlns="http://www.w3.org/2000/svg">
<symbol id="fb" viewBox="0 0 24 24">
<path d="M24 22.6921C24 23.4114 23.4114 24 22.6921 24H16.545V14.7139H19.6839L20.1417 11.1172H16.545V8.82834C16.545 7.78202 16.8065 7.06267 18.3106 7.06267H20.2071V3.79292C19.8801 3.72752 18.7684 3.66213 17.3951 3.66213C14.6485 3.66213 12.752 5.3624 12.752 8.43597V11.1172H9.61308V14.7139H12.752V24H1.3079C0.588556 24 0 23.4114 0 22.6921V1.3079C0 0.588556 0.588556 0 1.3079 0H22.6921C23.4114 0 24 0.588556 24 1.3079V22.6921Z"/>
</symbol>


<symbol id="vk" viewBox="0 0 24 14">
<path d="M23.8692 12.5259C23.8692 12.4605 23.8038 12.3951 23.8038 12.3951C23.4114 11.6757 22.5613 10.6948 21.3842 9.64849C20.861 9.12533 20.5341 8.79835 20.4033 8.60216C20.1417 8.27519 20.0763 7.94821 20.2071 7.62124C20.3379 7.35966 20.6649 6.8365 21.3188 5.98636C21.6458 5.5286 21.9074 5.20162 22.1035 4.94004C23.5422 3.04358 24.1962 1.80108 24 1.27792L23.9346 1.14712C23.8692 0.950939 23.7384 0.885544 23.5422 0.820149C23.3461 0.754754 23.0845 0.754754 22.7575 0.820149H19.1608C19.0954 0.820149 19.03 0.820149 18.8992 0.820149C18.7684 0.820149 18.7684 0.885545 18.7684 0.885545H18.703L18.6376 0.95094C18.5722 0.95094 18.5722 1.01633 18.5068 1.08173C18.4414 1.14713 18.4414 1.21252 18.376 1.27792C17.9837 2.25884 17.5259 3.23977 17.0681 4.0899C16.7411 4.61306 16.4796 5.07083 16.218 5.4632C15.9564 5.85557 15.7602 6.11715 15.564 6.31334C15.3678 6.50952 15.2371 6.64031 15.1063 6.7711C14.9755 6.90189 14.8447 6.90189 14.7793 6.90189C14.7139 6.90189 14.6485 6.8365 14.5831 6.8365C14.4523 6.7711 14.3869 6.64031 14.3215 6.50952C14.2561 6.37873 14.1907 6.24794 14.1907 6.05176C14.1907 5.85557 14.1253 5.65939 14.1253 5.5286C14.1253 5.39781 14.1253 5.20162 14.1253 4.94004C14.1253 4.67846 14.1253 4.48227 14.1253 4.41688C14.1253 4.0899 14.1253 3.76293 14.1253 3.37056C14.1253 2.97819 14.1253 2.71661 14.1253 2.52042C14.1253 2.32424 14.1253 2.06266 14.1253 1.80108C14.1253 1.5395 14.1253 1.34331 14.0599 1.21252C14.0599 1.08173 13.9946 0.950939 13.9292 0.820149C13.8638 0.689359 13.7984 0.558569 13.6676 0.493174C13.5368 0.427779 13.406 0.362384 13.2752 0.296989C12.8174 0.166199 12.2943 0.166199 11.5749 0.166199C10.0055 0.166199 9.02452 0.231594 8.56676 0.493174C8.37057 0.558569 8.23978 0.689359 8.10899 0.885545C7.9782 1.08173 7.91281 1.14712 8.0436 1.21252C8.56676 1.27792 8.89373 1.4741 9.08992 1.73568L9.15531 1.86647C9.22071 1.99726 9.2861 2.19345 9.3515 2.45503C9.41689 2.71661 9.41689 3.04358 9.48229 3.37056C9.54768 3.95911 9.54768 4.48227 9.48229 4.94004C9.41689 5.39781 9.41689 5.72478 9.3515 5.92097C9.2861 6.18255 9.2861 6.37873 9.15531 6.50952C9.08992 6.64031 9.02452 6.7711 9.02452 6.7711C9.02452 6.8365 8.95913 6.8365 8.95913 6.8365C8.82834 6.90189 8.76294 6.90189 8.63215 6.90189C8.50136 6.90189 8.37057 6.8365 8.23978 6.70571C8.0436 6.57492 7.91281 6.44413 7.71662 6.24794C7.52044 6.05176 7.32425 5.79018 7.12807 5.39781C6.93188 5.00543 6.6703 4.61306 6.40872 4.0899L6.21253 3.69753C6.08174 3.43595 5.88556 3.10898 5.68937 2.65121C5.49319 2.19345 5.297 1.80108 5.10082 1.34331C5.03542 1.21252 4.90463 1.08173 4.77384 0.95094H4.70845C4.64305 0.885545 4.57766 0.885544 4.51226 0.820149C4.44687 0.820149 4.31608 0.754755 4.25068 0.754755H0.850136C0.457766 0.754755 0.196185 0.885544 0.0653951 1.01633V1.08173C0 1.14713 0 1.21252 0 1.27792C0 1.34331 0 1.4741 0.0653951 1.60489C0.588556 2.782 1.11172 3.89372 1.70027 5.00544C2.28883 6.11715 2.81199 6.96729 3.20436 7.62124C3.66213 8.27519 4.0545 8.92914 4.51226 9.5177C4.97003 10.1063 5.23161 10.4986 5.42779 10.6294C5.55858 10.8256 5.68937 10.891 5.75477 11.0218L6.08174 11.3488C6.27793 11.5449 6.60491 11.8065 6.93188 12.0681C7.32425 12.3297 7.71662 12.5913 8.23978 12.9182C8.69755 13.1798 9.2861 13.4414 9.87466 13.5722C10.5286 13.7684 11.1172 13.8338 11.7057 13.7684H13.1444C13.406 13.7684 13.6676 13.6376 13.7984 13.5068L13.8638 13.4414C13.9292 13.376 13.9292 13.3106 13.9292 13.1798C13.9292 13.049 13.9946 12.9836 13.9946 12.8528C13.9946 12.5259 13.9946 12.1989 14.0599 11.8719C14.1253 11.6103 14.1907 11.3488 14.2561 11.218C14.3215 11.0872 14.4523 10.9564 14.5177 10.8256C14.6485 10.6948 14.7139 10.6948 14.7139 10.6294C14.7793 10.6294 14.7793 10.564 14.8447 10.564C15.0409 10.4986 15.3025 10.564 15.564 10.7602C15.8256 10.9564 16.0872 11.218 16.3488 11.4795C16.6104 11.7411 16.8719 12.0681 17.1989 12.4605C17.5259 12.7875 17.8529 13.1144 18.049 13.2452L18.3106 13.376C18.5068 13.5068 18.703 13.5722 18.9646 13.6376C19.2262 13.703 19.4877 13.7684 19.6839 13.703L22.8883 13.6376C23.2153 13.6376 23.4768 13.5722 23.6076 13.5068C23.8038 13.376 23.8692 13.3106 23.9346 13.1798C24 13.049 24 12.9182 23.9346 12.7221C23.9346 12.7221 23.9346 12.5913 23.8692 12.5259Z"/>

</symbol>

<symbol id="inst" viewBox="0 0 24 24">
<path d="M21.1226 0H2.87738C1.3079 0 0 1.24251 0 2.81199V21.188C0 22.7575 1.3079 24 2.87738 24H21.1226C22.6921 24 24 22.7575 24 21.188V2.81199C24 1.24251 22.6921 0 21.1226 0ZM17.2643 3.72752C17.2643 3.33515 17.5913 3.00817 17.9837 3.00817H20.2725C20.6649 3.00817 20.9918 3.33515 20.9918 3.72752V5.95095C20.9918 6.34332 20.6649 6.6703 20.2725 6.6703H18.049C17.6567 6.6703 17.3297 6.34332 17.3297 5.95095L17.2643 3.72752ZM12.0327 7.38965C14.5831 7.38965 16.6757 9.41689 16.6757 11.9673C16.6757 14.5177 14.5831 16.545 12.0327 16.545C9.48229 16.545 7.38965 14.5177 7.38965 11.9673C7.38965 9.48229 9.48229 7.38965 12.0327 7.38965ZM21.7112 20.9918C21.7112 21.3842 21.3842 21.7112 20.9918 21.7112H3.00817C2.6158 21.7112 2.28883 21.3842 2.28883 20.9918V9.74387H5.23161C4.83924 10.3324 4.70845 11.3787 4.70845 12.0327C4.70845 16.0218 7.9782 19.2916 12.0327 19.2916C16.0872 19.2916 19.3569 16.0218 19.3569 12.0327C19.3569 11.3787 19.2916 10.3324 18.7684 9.74387H21.7766L21.7112 20.9918Z" />

</symbol>

<symbol id="twitter" viewBox="0 0 24 21">
<path d="M23.346 0.419627C22.3651 1.00818 21.3188 1.40055 20.2071 1.66213C19.2916 0.681207 18.049 0.0926514 16.6104 0.0926514C13.8638 0.0926514 11.7057 2.38148 11.7057 5.12807C11.7057 5.52044 11.7711 5.91281 11.8365 6.30519C7.71662 6.0436 4.11989 4.01636 1.70027 0.942788C1.3079 1.66213 1.04632 2.57766 1.04632 3.4932C1.04632 5.25886 1.89646 6.76295 3.26975 7.67848C2.48501 7.67848 1.70027 7.4169 1.04632 7.02453V7.15532C1.04632 9.57494 2.74659 11.6676 4.97003 12.1253C4.57766 12.2561 4.11989 12.3215 3.66213 12.3215C3.33515 12.3215 3.00817 12.3215 2.74659 12.2561C3.40054 14.2834 5.16621 15.7221 7.32425 15.7875C5.62398 17.1608 3.53133 17.9455 1.17711 17.9455C0.784741 17.9455 0.392371 17.9455 0 17.8801C2.15804 19.3188 4.77384 20.1689 7.52044 20.1689C16.6104 20.1689 21.515 12.4523 21.515 5.78202C21.515 5.58584 21.515 5.32426 21.515 5.12807C22.4959 4.40873 23.346 3.55859 24 2.51227C23.1499 2.90464 22.1689 3.16622 21.188 3.29701C22.1689 2.57767 22.9537 1.59674 23.346 0.419627Z"/>

</symbol>

<symbol id="phone" viewBox="0 0 24 24">

<path d="M23.9481 18.5956C23.8802 18.3911 23.4483 18.0898 22.6528 17.6924C22.4372 17.5671 22.1301 17.3969 21.7328 17.181C21.335 16.965 20.974 16.7661 20.6504 16.5842C20.3261 16.4024 20.0222 16.2263 19.7384 16.0561C19.693 16.022 19.551 15.9227 19.3123 15.7576C19.0735 15.5929 18.872 15.4707 18.707 15.391C18.5422 15.3118 18.3802 15.2719 18.2211 15.2719C17.9939 15.2719 17.7101 15.4339 17.3693 15.7576C17.0285 16.0816 16.7159 16.4336 16.432 16.8147C16.148 17.1955 15.8468 17.5475 15.5289 17.8714C15.2106 18.1954 14.949 18.3572 14.7447 18.3572C14.6422 18.3572 14.5143 18.3286 14.361 18.2722C14.2078 18.2154 14.0913 18.1668 14.0113 18.1276C13.932 18.0875 13.7959 18.0082 13.6026 17.8885C13.409 17.7692 13.3013 17.7038 13.2786 17.6924C11.7218 16.8286 10.3867 15.8399 9.273 14.7266C8.15962 13.6127 7.17084 12.2777 6.30725 10.7208C6.29591 10.6981 6.23042 10.5901 6.11119 10.397C5.99179 10.2038 5.91221 10.0676 5.87245 9.98781C5.83268 9.90835 5.78439 9.79181 5.72767 9.63844C5.67095 9.48506 5.64248 9.3573 5.64248 9.25491C5.64248 9.05049 5.80445 8.789 6.12833 8.47079C6.45215 8.15276 6.80451 7.8515 7.18505 7.56762C7.56589 7.28374 7.91789 6.97114 8.24183 6.63036C8.56565 6.2894 8.72756 6.00546 8.72756 5.77824C8.72756 5.61925 8.6878 5.45716 8.60834 5.29244C8.52882 5.12737 8.40667 4.92594 8.24183 4.68719C8.07693 4.44856 7.97753 4.30665 7.94338 4.26098C7.77311 3.97709 7.59717 3.67315 7.41514 3.34927C7.23311 3.02545 7.03442 2.66449 6.81842 2.26682C6.6026 1.86932 6.43227 1.5624 6.30713 1.34651C5.90964 0.551227 5.60856 0.119224 5.40397 0.0512838C5.32438 0.0171941 5.20498 0 5.04605 0C4.73907 0 4.33859 0.0567167 3.84432 0.170508C3.34987 0.284121 2.96079 0.403286 2.67667 0.52848C2.10849 0.766989 1.50628 1.46013 0.869857 2.60766C0.290332 3.6756 0.000598907 4.73262 0.000598907 5.77794C0.000598907 6.08451 0.0204796 6.38278 0.060241 6.67281C0.100002 6.96254 0.171047 7.28929 0.273436 7.65299C0.375645 8.01658 0.458093 8.28667 0.520422 8.46255C0.58281 8.63855 0.699289 8.95384 0.869797 9.40852C1.04007 9.86309 1.14245 10.1414 1.17654 10.2436C1.57422 11.3573 2.0458 12.3515 2.59118 13.2266C3.4885 14.681 4.71304 16.1841 6.26409 17.7353C7.8152 19.2864 9.31802 20.5108 10.7726 21.4085C11.6475 21.9538 12.6421 22.4254 13.7556 22.8233C13.8579 22.8573 14.1362 22.9594 14.5906 23.1303C15.0451 23.3007 15.3605 23.4171 15.5365 23.4796C15.7126 23.5422 15.9828 23.6247 16.346 23.7271C16.7101 23.8295 17.0366 23.9005 17.3263 23.9406C17.6162 23.9798 17.9145 24.0001 18.2212 24.0001C19.2664 24.0001 20.3235 23.7101 21.3916 23.1307C22.539 22.4945 23.232 21.8922 23.4706 21.3236C23.5961 21.0397 23.715 20.6506 23.8286 20.1561C23.9426 19.6619 23.9992 19.2615 23.9992 18.9545C23.9995 18.795 23.9824 18.6759 23.9481 18.5956Z"/>
</symbol>

<symbol id="fit" viewBox="0 0 44 68">
<path d="M41.8359 60.0312H35.8594V55.7812H38.5223C39.6225 55.7812 40.5145 54.8893 40.5145 53.7891C40.5145 52.6888 39.6225 51.7969 38.5223 51.7969H35.8594V47.8125H41.1785C42.2787 47.8125 43.1707 46.9205 43.1707 45.8203C43.1707 44.7201 42.2787 43.8281 41.1785 43.8281H35.8594V39.8438H38.5223C39.6225 39.8438 40.5145 38.9518 40.5145 37.8516C40.5145 36.7513 39.6225 35.8594 38.5223 35.8594H35.8594V31.875H41.1785C42.2787 31.875 43.1707 30.983 43.1707 29.8828C43.1707 28.7826 42.2787 27.8906 41.1785 27.8906H35.8594V23.9062H38.5223C39.6225 23.9062 40.5145 23.0143 40.5145 21.9141C40.5145 20.8138 39.6225 19.9219 38.5223 19.9219H35.8594V15.9375H41.1785C42.2787 15.9375 43.1707 15.0455 43.1707 13.9453C43.1707 12.8451 42.2787 11.9531 41.1785 11.9531H35.8594V7.96875H38.5223C39.6225 7.96875 40.5145 7.07678 40.5145 5.97656C40.5145 4.87634 39.6225 3.98438 38.5223 3.98438H35.8594V1.99219C35.8594 0.891969 34.9674 0 33.8672 0C32.767 0 31.875 0.891969 31.875 1.99219V60.0312H24.6821L25.7778 42.5H25.9051C27.0053 42.5 27.8973 41.608 27.8973 40.5078V27.2232C27.8973 22.8007 24.9982 19.0441 21.0014 17.7493C22.7475 16.7048 23.9195 14.7956 23.9195 12.6172C23.9195 9.32171 21.2384 6.64062 17.943 6.64062C14.6475 6.64062 11.9664 9.32171 11.9664 12.6172C11.9664 14.7946 13.1373 16.703 14.882 17.7479C10.8831 19.0415 7.98203 22.7991 7.98203 27.2232V40.5078C7.98203 41.608 8.874 42.5 9.97422 42.5H10.0948L11.1905 60.0312H1.99219C0.891969 60.0312 0 60.9232 0 62.0234V66.0078C0 67.108 0.891969 68 1.99219 68C3.09241 68 3.98438 67.108 3.98438 66.0078V64.0156H39.8438V66.0078C39.8438 67.108 40.7357 68 41.8359 68C42.9362 68 43.8281 67.108 43.8281 66.0078V62.0234C43.8281 60.9232 42.9362 60.0312 41.8359 60.0312ZM17.943 10.625C19.0415 10.625 19.9352 11.5187 19.9352 12.6172C19.9352 13.7157 19.0415 14.6094 17.943 14.6094C16.8445 14.6094 15.9508 13.7157 15.9508 12.6172C15.9508 11.5187 16.8443 10.625 17.943 10.625ZM11.9664 27.2232C11.9664 23.9296 14.646 21.25 17.9398 21.25C21.2334 21.25 23.913 23.9296 23.913 27.2232V38.5156H11.9664V27.2232ZM14.0869 42.5H21.7856L20.6899 60.0312H15.1826L14.0869 42.5Z" fill="black"/>
</symbol>

<symbol id="strong" viewBox="0 0 64 64">
<path d="M33.875 30.1811V19.8166H38.025C47.9181 19.8166 55.9666 11.768 55.9666 1.875C55.9666 0.8395 55.1271 0 54.0916 0H48.0646C41.0369 0 34.9411 4.06275 31.9996 9.96225C29.0576 4.06262 22.9615 0 15.9334 0H9.90837C8.87288 0 8.03337 0.8395 8.03337 1.875C8.03337 11.7681 16.082 19.8166 25.975 19.8166H30.125V30.1811C13.3249 31.1521 0 45.0815 0 62.125C0 63.1605 0.8395 64 1.875 64H62.125C63.1605 64 64 63.1605 64 62.125C64 45.0815 50.6751 31.1521 33.875 30.1811ZM48.0646 3.75H52.0933C51.1726 10.692 45.2145 16.0666 38.025 16.0666H33.9981C34.9174 9.12425 40.8751 3.75 48.0646 3.75ZM25.975 16.0666C18.7854 16.0666 12.8272 10.692 11.9067 3.75H15.9334C23.123 3.75 29.0811 9.12463 30.0016 16.0666H25.975ZM3.8105 60.25C4.7385 45.9209 15.2449 38.245 22.0917 35.6657V40.3778C22.0917 40.9499 21.8689 41.4879 21.4641 41.8926L15.4391 47.9176C13.1423 50.2145 13.1423 53.9519 15.4391 56.2487L19.44 60.25H3.8105ZM24.7434 60.25L18.0906 53.5973C17.2543 52.7609 17.2534 51.4065 18.0906 50.5692L24.1156 44.5444C25.2288 43.4314 25.8417 41.9516 25.8417 40.3778V34.5489C27.8536 34.1014 29.9191 33.875 32 33.875C36.9144 33.875 41.6772 35.1336 45.9062 37.5337L35.5223 47.9178C33.2226 50.2174 33.2178 53.9449 35.5223 56.2489L39.5234 60.25H24.7434ZM44.8266 60.25L38.1739 53.5971C37.3382 52.7616 37.3371 51.4062 38.1739 50.5692L49.1001 39.6431C55.6121 44.6034 59.6477 52.1131 60.1879 60.2499H44.8266V60.25Z" fill="black"/>
</symbol>

<symbol id="unique" viewBox="0 0 68 68">
<path d="M67.58 64.7842C67.4752 64.6494 64.9503 61.4478 59.6006 58.2906C56.9903 56.75 53.3914 55.0512 48.7861 53.8092C49.7611 50.514 50.8711 45.7687 51.3499 40.1027C51.8914 33.6964 51.5072 27.4363 50.2076 21.4964C48.5791 14.0532 45.5041 7.10361 41.0679 0.840703C40.6944 0.313437 40.0884 0 39.4422 0C38.7961 0 38.1901 0.313305 37.8166 0.840703C36.4181 2.81509 35.155 4.85802 34.0297 6.96283C32.9044 4.85788 31.6415 2.81509 30.2428 0.840703C29.8694 0.313437 29.2633 0 28.6172 0C27.9711 0 27.3651 0.313305 26.9916 0.840703C22.5554 7.10348 19.4804 14.053 17.8518 21.4965C16.5523 27.4364 16.168 33.6964 16.7095 40.1029C17.2019 45.9283 18.3614 50.7807 19.3554 54.0843C15.1095 55.2884 11.6855 56.8436 9.12061 58.2632C3.46718 61.3926 0.622734 64.5502 0.504398 64.683C-0.0175553 65.2692 -0.146649 66.1072 0.174492 66.8232C0.495632 67.5391 1.20737 68 1.99216 68H66.0078C66.7688 68 67.4633 67.5664 67.7976 66.8828C68.1317 66.1992 68.0474 65.3849 67.58 64.7842ZM20.9628 26.9581L34.3264 17.8771C34.7222 19.1401 35.0719 20.4201 35.3722 21.7176L20.5296 31.8038C20.6034 30.2441 20.7425 28.6243 20.9628 26.9581ZM21.9738 21.4539C23.1906 16.3163 25.2642 10.9068 28.6188 5.57441C30.3273 8.279 31.7667 11.0904 32.9405 14.0015L21.9738 21.4539ZM20.4961 36.6438L36.179 25.9865C36.8241 30.3597 36.9548 34.9112 36.5666 39.6274C36.1538 44.6411 35.1975 48.9293 34.323 52.0159C30.2386 52.0394 26.5399 52.4701 23.2384 53.1424C22.2965 50.0504 21.1538 45.3767 20.6797 39.7673C20.5957 38.7749 20.5323 37.7314 20.4961 36.6438ZM34.6735 55.9971C45.4742 55.9971 52.9886 59.0514 57.3905 61.6136C58.8019 62.4352 59.9934 63.2602 60.9717 64.0156H7.43402C12.1776 60.6701 21.2129 55.9971 34.6735 55.9971ZM39.444 5.57441C45.7576 15.5693 48.4302 27.0098 47.3915 39.6274C46.9364 45.1541 45.8212 49.7995 44.8829 52.9247C42.8862 52.5547 40.7358 52.2795 38.4326 52.133C39.2726 48.9847 40.1222 44.8692 40.5251 40.1029C41.0665 33.6965 40.6823 27.4364 39.3827 21.4965C38.6317 18.0636 37.5721 14.7359 36.214 11.532C37.1285 9.54749 38.1975 7.55557 39.444 5.57441Z" fill="black"/>
</symbol>

<symbol id="bord" viewBox="0 0 44 44">
<path d="M43.6224 0.377541C43.352 0.106917 42.9749 -0.0297695 42.5941 0.00545453C42.4351 0.0198878 38.6411 0.38072 33.4378 2.12723C16.5036 7.34263 5.29627 23.7628 0.084737 35.6415C-0.243304 36.4259 0.419479 37.4759 1.41151 37.3891L7.16777 36.8291L6.60783 42.5849C6.54648 43.4123 7.34974 44.2837 8.35552 43.9116C29.0348 34.4891 41.6483 20.0671 43.9947 1.40583C44.0294 1.0248 43.8931 0.647993 43.6224 0.377541ZM26.9597 28.7069C24.6747 30.7864 22.4223 32.574 20.3403 34.0798V12.1341C22.5228 10.3454 24.7848 8.89566 26.9597 7.72519V28.7069ZM14.3821 37.9794C12.3358 39.1817 10.6086 40.0592 9.38698 40.6383L9.88497 35.5196C9.95886 34.8536 9.34273 34.0111 8.47744 34.1122L3.36042 34.6099C5.08912 30.9423 9.74492 22.4028 17.7627 14.4555V35.8653C16.5271 36.6844 15.3872 37.3889 14.3821 37.9794ZM39.405 9.81278C37.8914 14.2983 34.9521 20.7742 29.5372 26.2415V6.44123C33.0645 4.73768 38.4534 3.21067 41.194 2.80577C40.9314 4.3448 40.4041 6.85172 39.405 9.81278Z"/>
</symbol>

<symbol id="material" viewBox="0 0 44 44">
<path d="M42.7109 15.5547H33.4859C33.4867 15.5466 33.4881 15.5386 33.489 15.5305C34.5624 14.6069 35.4204 13.5102 36.0436 12.264C36.2435 11.8644 36.2221 11.3899 35.9873 11.0099C35.7523 10.6298 35.3374 10.3984 34.8906 10.3984H32.9008C32.4691 9.17708 31.8389 8.04924 31.0187 7.03088C31.1239 5.62022 30.955 4.23997 30.5149 2.9198C30.3737 2.49596 30.023 2.1755 29.5882 2.07289C29.1533 1.97019 28.6965 2.10013 28.3805 2.41595L26.9706 3.82584C25.8057 3.26897 24.5654 2.91748 23.2672 2.77663C22.2944 1.63065 21.1731 0.723584 19.9983 0.136115C19.5987 -0.0636892 19.1243 -0.0423767 18.7441 0.19249C18.3642 0.427358 18.1328 0.842264 18.1328 1.28905V3.36479C16.9116 3.79645 15.7835 4.4268 14.7653 5.2469C13.3548 5.1418 11.9743 5.31067 10.6544 5.75076C10.2305 5.89204 9.91006 6.24275 9.80745 6.67751C9.70484 7.11226 9.8346 7.56928 10.1505 7.8851L11.5601 9.29482C11.0029 10.4606 10.6513 11.7017 10.5107 13.0009C9.647 13.7441 8.92306 14.5995 8.3484 15.5548H1.28906C0.577156 15.5548 0 16.1319 0 16.8438V22.0001C0 22.712 0.577156 23.2891 1.28906 23.2891H2.66406V42.711C2.66406 43.4229 3.24122 44.0001 3.95312 44.0001H9.10938C9.82128 44.0001 10.3984 43.4229 10.3984 42.711V38.3416L22 33.701L33.6016 38.3416V42.7109C33.6016 43.4228 34.1787 44 34.8906 44H40.0469C40.7588 44 41.3359 43.4228 41.3359 42.7109V23.2891H42.7109C43.4228 23.2891 44 22.7119 44 22V16.8437C44 16.1318 43.4228 15.5547 42.7109 15.5547ZM12.5384 14.6726C12.8324 14.445 13.0138 14.1015 13.0359 13.7302C13.122 12.2914 13.5325 10.9395 14.2563 9.71222C14.5549 9.20587 14.473 8.5616 14.0574 8.14592L13.7103 7.79882C14.1413 7.78558 14.5778 7.80681 15.0183 7.86258C15.3871 7.90933 15.7584 7.79452 16.0365 7.54745C17.1136 6.59062 18.3613 5.92383 19.745 5.56547C20.3137 5.41835 20.7109 4.90522 20.7109 4.31775V3.80771C21.0177 4.10952 21.3132 4.44287 21.5929 4.80415C21.8206 5.09815 22.1641 5.27948 22.5352 5.30165C23.974 5.38758 25.3259 5.79819 26.5533 6.52196C27.0597 6.82051 27.7039 6.73869 28.1195 6.3231L28.4668 5.97591C28.48 6.40689 28.4588 6.84354 28.403 7.28397C28.3563 7.6529 28.4711 8.02406 28.7182 8.30215C29.675 9.3793 30.3418 10.627 30.7001 12.0107C30.8474 12.5794 31.3606 12.9766 31.948 12.9766H32.4345C32.1384 13.2916 31.8137 13.586 31.4617 13.8586C31.1677 14.0863 30.9864 14.4298 30.9642 14.8009C30.9491 15.0536 30.923 15.3052 30.8872 15.5548H25.6455C25.7886 15.1513 25.8672 14.7176 25.8672 14.2657C25.8672 12.1333 24.1324 10.3985 22 10.3985C19.8676 10.3985 18.1328 12.1333 18.1328 14.2657C18.1328 14.7176 18.2114 15.1513 18.3545 15.5548H11.5662C11.8624 15.2397 12.1865 14.9451 12.5384 14.6726ZM23.2891 14.2656C23.2891 14.9764 22.7108 15.5547 22 15.5547C21.2892 15.5547 20.7109 14.9764 20.7109 14.2656C20.7109 13.5548 21.2892 12.9766 22 12.9766C22.7108 12.9766 23.2891 13.5548 23.2891 14.2656ZM7.82031 41.4219H5.24219V23.2891H7.82031C7.82031 23.2803 7.8204 36.0167 7.82031 41.4219ZM10.3984 35.5648V29.0603L18.5291 32.3125L10.3984 35.5648ZM33.6016 35.5648L25.4709 32.3125L33.6016 29.0603V35.5648ZM33.6016 26.2835L22 30.9242L10.3984 26.2835V23.2891H33.6016V26.2835ZM38.7578 41.4219H36.1797C36.1797 39.1353 36.1797 26.0464 36.1797 23.2891H38.7578V41.4219ZM41.4219 20.7109H2.57812V18.1328H41.4219V20.7109Z"/>
</symbol>

<symbol id="car" viewBox="0 0 44 31">
<path d="M33.2311 19.4117C30.1728 19.4117 27.6849 21.8997 27.6849 24.958C27.6849 28.0162 30.1728 30.5042 33.2311 30.5042C36.2899 30.5042 38.7773 28.0162 38.7773 24.958C38.7773 21.8997 36.2893 19.4117 33.2311 19.4117ZM33.2311 27.7311C31.7017 27.7311 30.458 26.4873 30.458 24.958C30.458 23.4286 31.7017 22.1849 33.2311 22.1849C34.7604 22.1849 36.0042 23.4286 36.0042 24.958C36.0042 26.4874 34.7604 27.7311 33.2311 27.7311Z" />
<path d="M14.2815 19.4117C11.2233 19.4117 8.73529 21.8997 8.73529 24.958C8.73529 28.0162 11.2233 30.5042 14.2815 30.5042C17.3398 30.5042 19.8278 28.0162 19.8278 24.958C19.8278 21.8997 17.3398 19.4117 14.2815 19.4117ZM14.2815 27.7311C12.7522 27.7311 11.5084 26.4873 11.5084 24.958C11.5084 23.4286 12.7522 22.1849 14.2815 22.1849C15.8104 22.1849 17.0546 23.4286 17.0546 24.958C17.0546 26.4874 15.8109 27.7311 14.2815 27.7311Z"/>
<path d="M36.966 3.53667C36.7303 3.06848 36.251 2.77312 35.7269 2.77312H28.4243V5.54624H34.8718L38.6474 13.0558L41.1256 11.8097L36.966 3.53667Z"/>
<path d="M29.0715 23.6177H18.5799V26.3908H29.0715V23.6177Z"/>
<path d="M10.1218 23.6177H5.31515C4.54928 23.6177 3.92864 24.2384 3.92864 25.0042C3.92864 25.7701 4.54936 26.3907 5.31515 26.3907H10.1219C10.8878 26.3907 11.5084 25.77 11.5084 25.0042C11.5084 24.2383 10.8877 23.6177 10.1218 23.6177Z"/>
<path d="M43.7088 15.1412L40.9815 11.6285C40.7195 11.2902 40.3151 11.0924 39.8866 11.0924H29.8109V1.38652C29.8109 0.62064 29.1902 0 28.4244 0H5.31515C4.54928 0 3.92864 0.620726 3.92864 1.38652C3.92864 2.1523 4.54936 2.77303 5.31515 2.77303H27.0378V12.4789C27.0378 13.2448 27.6586 13.8654 28.4243 13.8654H39.2076L41.2269 16.4666V23.6175H37.3907C36.6249 23.6175 36.0042 24.2382 36.0042 25.004C36.0042 25.7699 36.6249 26.3906 37.3907 26.3906H42.6134C43.3793 26.3906 43.9999 25.7698 44 25.004V15.9916C44 15.6838 43.8974 15.3843 43.7088 15.1412Z"/>
<path d="M10.0294 16.5925H3.65123C2.88535 16.5925 2.26471 17.2132 2.26471 17.979C2.26471 18.7449 2.88544 19.3655 3.65123 19.3655H10.0293C10.7952 19.3655 11.4159 18.7448 11.4159 17.979C11.4159 17.2132 10.7952 16.5925 10.0294 16.5925Z"/>
<path d="M13.2185 11.1386H1.38652C0.620727 11.1386 0 11.7594 0 12.5252C0 13.2911 0.620727 13.9117 1.38652 13.9117H13.2185C13.9844 13.9117 14.605 13.291 14.605 12.5252C14.605 11.7594 13.9844 11.1386 13.2185 11.1386Z" />
<path d="M15.4832 5.68486H3.65123C2.88535 5.68486 2.26471 6.30559 2.26471 7.07138C2.26471 7.83725 2.88544 8.45789 3.65123 8.45789H15.4832C16.2491 8.45789 16.8697 7.83717 16.8697 7.07138C16.8698 6.30559 16.2491 5.68486 15.4832 5.68486Z" />
</symbol>

</svg>